ply
format ascii 1.0
comment Created by Blender 2.63 (sub 0) - www.blender.org, source file: 'Arena.blend'
element vertex 154
property float x
property float y
property float z
property float nx
property float ny
property float nz
property float s
property float t
element face 64
property list uchar uint vertex_indices
end_header
9.466882 -9.445395 -0.244338 1.000000 0.000000 0.000000 0.000000 0.000000
9.466882 -9.445395 -2.967440 1.000000 0.000000 0.000000 1.000000 0.000000
9.466882 9.488371 -2.967440 1.000000 0.000000 0.000000 1.000000 1.000000
9.466882 9.488371 -0.244338 1.000000 0.000000 0.000000 0.000000 1.000000
8.767103 8.721319 -0.259816 -0.923169 -0.382389 0.039205 0.000000 0.000000
8.992392 8.946607 7.242489 -0.923169 -0.382389 0.039205 1.000000 0.000000
8.673786 8.946607 -0.259816 -0.923169 -0.382389 0.039205 1.000000 1.000000
8.992392 8.628001 -0.259816 -0.382391 -0.923169 0.039205 0.000000 0.000000
8.992392 8.946607 7.242489 -0.382391 -0.923169 0.039205 1.000000 0.000000
8.767103 8.721319 -0.259816 -0.382391 -0.923169 0.039205 1.000000 1.000000
9.217679 8.721319 -0.259816 0.382392 -0.923168 0.039205 0.000000 0.000000
8.992392 8.946607 7.242489 0.382392 -0.923168 0.039205 1.000000 0.000000
8.992392 8.628001 -0.259816 0.382392 -0.923168 0.039205 1.000000 1.000000
9.310996 8.946607 -0.259816 0.923169 -0.382389 0.039205 0.000000 0.000000
8.992392 8.946607 7.242489 0.923169 -0.382389 0.039205 1.000000 0.000000
9.217679 8.721319 -0.259816 0.923169 -0.382389 0.039205 1.000000 1.000000
8.992392 9.265212 -0.259816 0.000000 0.000000 -1.000000 0.500000 1.000000
9.217679 9.171894 -0.259816 0.000000 0.000000 -1.000000 0.853553 0.853553
8.767103 9.171894 -0.259816 0.000000 0.000000 -1.000000 0.146447 0.853553
8.673786 8.946607 -0.259816 0.000000 -0.000000 -1.000000 0.000000 0.500000
9.310996 8.946607 -0.259816 0.000000 0.000000 -1.000000 1.000000 0.500000
8.767103 8.721319 -0.259816 0.000000 0.000000 -1.000000 0.146447 0.146447
9.217679 8.721319 -0.259816 0.000000 0.000000 -1.000000 0.853553 0.146447
8.992392 8.628001 -0.259816 0.000000 0.000000 -1.000000 0.500000 0.000000
8.992392 -8.649095 -0.259816 0.000000 0.000000 -1.000000 0.500000 1.000000
9.217679 -8.742412 -0.259816 0.000000 0.000000 -1.000000 0.853553 0.853553
8.767103 -8.742412 -0.259816 0.000000 0.000000 -1.000000 0.146447 0.853553
8.673786 -8.967699 -0.259816 0.000000 -0.000000 -1.000000 0.000000 0.500000
9.310996 -8.967699 -0.259816 0.000000 0.000000 -1.000000 1.000000 0.500000
8.767103 -9.192987 -0.259816 0.000000 0.000000 -1.000000 0.146447 0.146447
9.217679 -9.192987 -0.259816 0.000000 0.000000 -1.000000 0.853553 0.146447
8.992392 -9.286304 -0.259816 0.000000 0.000000 -1.000000 0.500000 0.000000
9.310996 -8.967699 -0.259816 0.923170 -0.382388 0.039205 0.000000 0.000000
8.992392 -8.967699 7.242489 0.923170 -0.382388 0.039205 1.000000 0.000000
9.217679 -9.192987 -0.259816 0.923170 -0.382388 0.039205 1.000000 1.000000
9.217679 -9.192987 -0.259816 0.382389 -0.923169 0.039205 0.000000 0.000000
8.992392 -8.967699 7.242489 0.382389 -0.923169 0.039205 1.000000 0.000000
8.992392 -9.286304 -0.259816 0.382389 -0.923169 0.039205 1.000000 1.000000
8.992392 -9.286304 -0.259816 -0.382388 -0.923170 0.039205 0.000000 0.000000
8.992392 -8.967699 7.242489 -0.382388 -0.923170 0.039205 1.000000 0.000000
8.767103 -9.192987 -0.259816 -0.382388 -0.923170 0.039205 1.000000 1.000000
8.767103 -9.192987 -0.259816 -0.923170 -0.382388 0.039205 0.000000 0.000000
8.992392 -8.967699 7.242489 -0.923170 -0.382388 0.039205 1.000000 0.000000
8.673786 -8.967699 -0.259816 -0.923170 -0.382388 0.039205 1.000000 1.000000
9.217679 -8.742412 -0.259816 0.923169 0.382389 0.039205 0.000000 0.000000
8.992392 -8.967699 7.242489 0.923169 0.382389 0.039205 1.000000 0.000000
9.310996 -8.967699 -0.259816 0.923169 0.382389 0.039205 1.000000 1.000000
8.767103 -8.742412 -0.259816 -0.382388 0.923170 0.039205 0.000000 0.000000
8.992392 -8.967699 7.242489 -0.382388 0.923170 0.039205 1.000000 0.000000
8.992392 -8.649095 -0.259816 -0.382388 0.923170 0.039205 1.000000 1.000000
8.992392 -8.649095 -0.259816 0.382389 0.923169 0.039205 0.000000 0.000000
8.992392 -8.967699 7.242489 0.382389 0.923169 0.039205 1.000000 0.000000
9.217679 -8.742412 -0.259816 0.382389 0.923169 0.039205 1.000000 1.000000
9.217679 9.171894 -0.259816 0.923169 0.382389 0.039205 0.000000 0.000000
8.992392 8.946607 7.242489 0.923169 0.382389 0.039205 1.000000 0.000000
9.310996 8.946607 -0.259816 0.923169 0.382389 0.039205 1.000000 1.000000
8.673786 -8.967699 -0.259816 -0.923169 0.382389 0.039205 0.000000 0.000000
8.992392 -8.967699 7.242489 -0.923169 0.382389 0.039205 1.000000 0.000000
8.767103 -8.742412 -0.259816 -0.923169 0.382389 0.039205 1.000000 1.000000
8.767103 9.171894 -0.259816 -0.382391 0.923169 0.039205 0.000000 0.000000
8.992392 8.946607 7.242489 -0.382391 0.923169 0.039205 1.000000 0.000000
8.992392 9.265212 -0.259816 -0.382391 0.923169 0.039205 1.000000 1.000000
8.992392 9.265212 -0.259816 0.382392 0.923168 0.039205 0.000000 0.000000
8.992392 8.946607 7.242489 0.382392 0.923168 0.039205 1.000000 0.000000
9.217679 9.171894 -0.259816 0.382392 0.923168 0.039205 1.000000 1.000000
8.673786 8.946607 -0.259816 -0.923169 0.382389 0.039205 0.000000 0.000000
8.992392 8.946607 7.242489 -0.923169 0.382389 0.039205 1.000000 0.000000
8.767103 9.171894 -0.259816 -0.923169 0.382389 0.039205 1.000000 1.000000
-0.000001 -9.445395 -0.244338 0.000000 0.000000 1.000000 1.000000 1.000000
9.466882 -9.445395 -0.244338 0.000000 0.000000 1.000000 0.000000 1.000000
9.466882 9.488371 -0.244338 0.000000 0.000000 1.000000 0.000000 0.000000
-0.000001 9.488371 -0.244338 0.000000 0.000000 1.000000 1.000000 0.000000
9.466882 -9.445395 -2.967440 0.000000 -1.000000 0.000000 0.000000 0.000000
9.466882 -9.445395 -0.244338 0.000000 -1.000000 0.000000 1.000000 0.000000
-0.000001 -9.445395 -0.244338 0.000000 -1.000000 0.000000 1.000000 1.000000
-0.000001 -9.445395 -2.967440 0.000000 -1.000000 0.000000 0.000000 1.000000
9.466882 9.488371 -0.244338 -0.000000 1.000000 0.000000 0.000000 0.000000
9.466882 9.488371 -2.967440 -0.000000 1.000000 0.000000 1.000000 0.000000
-0.000001 9.488371 -2.967440 -0.000000 1.000000 0.000000 1.000000 1.000000
-0.000001 9.488371 -0.244338 -0.000000 1.000000 0.000000 0.000000 1.000000
-9.466883 -9.445395 -0.244338 -1.000000 0.000000 0.000000 0.000000 0.000000
-9.466883 9.488371 -0.244338 -1.000000 0.000000 0.000000 0.000000 1.000000
-9.466883 9.488371 -2.967440 -1.000000 0.000000 0.000000 1.000000 1.000000
-9.466883 -9.445395 -2.967440 -1.000000 0.000000 0.000000 1.000000 0.000000
-8.767104 8.721319 -0.259816 0.923169 -0.382389 0.039205 0.000000 0.000000
-8.673787 8.946607 -0.259816 0.923169 -0.382389 0.039205 1.000000 1.000000
-8.992392 8.946607 7.242489 0.923169 -0.382389 0.039205 1.000000 0.000000
-8.992392 8.628001 -0.259816 0.382392 -0.923168 0.039205 0.000000 0.000000
-8.767104 8.721319 -0.259816 0.382392 -0.923168 0.039205 1.000000 1.000000
-8.992392 8.946607 7.242489 0.382392 -0.923168 0.039205 1.000000 0.000000
-9.217680 8.721319 -0.259816 -0.382391 -0.923169 0.039205 0.000000 0.000000
-8.992392 8.628001 -0.259816 -0.382391 -0.923169 0.039205 1.000000 1.000000
-8.992392 8.946607 7.242489 -0.382391 -0.923169 0.039205 1.000000 0.000000
-9.310997 8.946607 -0.259816 -0.923169 -0.382389 0.039205 0.000000 0.000000
-9.217680 8.721319 -0.259816 -0.923169 -0.382389 0.039205 1.000000 1.000000
-8.992392 8.946607 7.242489 -0.923169 -0.382389 0.039205 1.000000 0.000000
-8.992392 9.265212 -0.259816 0.000000 0.000000 -1.000000 0.500000 1.000000
-8.767104 9.171894 -0.259816 0.000000 0.000000 -1.000000 0.146447 0.853553
-9.217680 9.171894 -0.259816 0.000000 0.000000 -1.000000 0.853553 0.853553
-9.310997 8.946607 -0.259816 0.000000 -0.000000 -1.000000 1.000000 0.500000
-8.673787 8.946607 -0.259816 0.000000 0.000000 -1.000000 0.000000 0.500000
-9.217680 8.721319 -0.259816 0.000000 0.000000 -1.000000 0.853553 0.146447
-8.767104 8.721319 -0.259816 0.000000 0.000000 -1.000000 0.146447 0.146447
-8.992392 8.628001 -0.259816 0.000000 0.000000 -1.000000 0.500000 0.000000
-8.992392 -8.649095 -0.259816 0.000000 0.000000 -1.000000 0.500000 1.000000
-8.767104 -8.742412 -0.259816 0.000000 0.000000 -1.000000 0.146447 0.853553
-9.217680 -8.742412 -0.259816 0.000000 0.000000 -1.000000 0.853553 0.853553
-9.310997 -8.967699 -0.259816 0.000000 -0.000000 -1.000000 1.000000 0.500000
-8.673787 -8.967699 -0.259816 0.000000 0.000000 -1.000000 0.000000 0.500000
-9.217680 -9.192987 -0.259816 0.000000 0.000000 -1.000000 0.853553 0.146447
-8.767104 -9.192987 -0.259816 0.000000 0.000000 -1.000000 0.146447 0.146447
-8.992392 -9.286304 -0.259816 0.000000 0.000000 -1.000000 0.500000 0.000000
-9.310997 -8.967699 -0.259816 -0.923170 -0.382388 0.039205 0.000000 0.000000
-9.217680 -9.192987 -0.259816 -0.923170 -0.382388 0.039205 1.000000 1.000000
-8.992392 -8.967699 7.242489 -0.923170 -0.382388 0.039205 1.000000 0.000000
-9.217680 -9.192987 -0.259816 -0.382388 -0.923170 0.039205 0.000000 0.000000
-8.992392 -9.286304 -0.259816 -0.382388 -0.923170 0.039205 1.000000 1.000000
-8.992392 -8.967699 7.242489 -0.382388 -0.923170 0.039205 1.000000 0.000000
-8.992392 -9.286304 -0.259816 0.382389 -0.923169 0.039205 0.000000 0.000000
-8.767104 -9.192987 -0.259816 0.382389 -0.923169 0.039205 1.000000 1.000000
-8.992392 -8.967699 7.242489 0.382389 -0.923169 0.039205 1.000000 0.000000
-8.767104 -9.192987 -0.259816 0.923170 -0.382388 0.039205 0.000000 0.000000
-8.673787 -8.967699 -0.259816 0.923170 -0.382388 0.039205 1.000000 1.000000
-8.992392 -8.967699 7.242489 0.923170 -0.382388 0.039205 1.000000 0.000000
-9.217680 -8.742412 -0.259816 -0.923169 0.382389 0.039205 0.000000 0.000000
-9.310997 -8.967699 -0.259816 -0.923169 0.382389 0.039205 1.000000 1.000000
-8.992392 -8.967699 7.242489 -0.923169 0.382389 0.039205 1.000000 0.000000
-8.767104 -8.742412 -0.259816 0.382389 0.923169 0.039205 0.000000 0.000000
-8.992392 -8.649095 -0.259816 0.382389 0.923169 0.039205 1.000000 1.000000
-8.992392 -8.967699 7.242489 0.382389 0.923169 0.039205 1.000000 0.000000
-8.992392 -8.649095 -0.259816 -0.382388 0.923170 0.039205 0.000000 0.000000
-9.217680 -8.742412 -0.259816 -0.382388 0.923170 0.039205 1.000000 1.000000
-8.992392 -8.967699 7.242489 -0.382388 0.923170 0.039205 1.000000 0.000000
-9.217680 9.171894 -0.259816 -0.923169 0.382389 0.039205 0.000000 0.000000
-9.310997 8.946607 -0.259816 -0.923169 0.382389 0.039205 1.000000 1.000000
-8.992392 8.946607 7.242489 -0.923169 0.382389 0.039205 1.000000 0.000000
-8.673787 -8.967699 -0.259816 0.923169 0.382389 0.039205 0.000000 0.000000
-8.767104 -8.742412 -0.259816 0.923169 0.382389 0.039205 1.000000 1.000000
-8.992392 -8.967699 7.242489 0.923169 0.382389 0.039205 1.000000 0.000000
-8.767104 9.171894 -0.259816 0.382392 0.923168 0.039205 0.000000 0.000000
-8.992392 9.265212 -0.259816 0.382392 0.923168 0.039205 1.000000 1.000000
-8.992392 8.946607 7.242489 0.382392 0.923168 0.039205 1.000000 0.000000
-8.992392 9.265212 -0.259816 -0.382391 0.923169 0.039205 0.000000 0.000000
-9.217680 9.171894 -0.259816 -0.382391 0.923169 0.039205 1.000000 1.000000
-8.992392 8.946607 7.242489 -0.382391 0.923169 0.039205 1.000000 0.000000
-8.673787 8.946607 -0.259816 0.923169 0.382389 0.039205 0.000000 0.000000
-8.767104 9.171894 -0.259816 0.923169 0.382389 0.039205 1.000000 1.000000
-8.992392 8.946607 7.242489 0.923169 0.382389 0.039205 1.000000 0.000000
-9.466883 9.488371 -0.244338 0.000000 0.000000 1.000000 0.000000 0.000000
-9.466883 -9.445395 -0.244338 0.000000 0.000000 1.000000 0.000000 1.000000
-9.466883 -9.445395 -2.967440 0.000000 -1.000000 -0.000000 0.000000 0.000000
-9.466883 -9.445395 -0.244338 0.000000 -1.000000 -0.000000 1.000000 0.000000
-9.466883 9.488371 -0.244338 0.000000 1.000000 -0.000000 0.000000 0.000000
-9.466883 9.488371 -2.967440 0.000000 1.000000 -0.000000 1.000000 0.000000
4 0 1 2 3
3 4 5 6
3 7 8 9
3 10 11 12
3 13 14 15
3 16 17 18
3 17 19 18
3 17 20 19
3 20 21 19
3 20 22 21
3 22 23 21
3 24 25 26
3 25 27 26
3 25 28 27
3 28 29 27
3 28 30 29
3 30 31 29
3 32 33 34
3 35 36 37
3 38 39 40
3 41 42 43
3 44 45 46
3 47 48 49
3 50 51 52
3 53 54 55
3 56 57 58
3 59 60 61
3 62 63 64
3 65 66 67
4 68 69 70 71
4 72 73 74 75
4 76 77 78 79
4 80 81 82 83
3 84 85 86
3 87 88 89
3 90 91 92
3 93 94 95
3 96 97 98
3 97 99 98
3 97 100 99
3 100 101 99
3 100 102 101
3 102 103 101
3 104 105 106
3 105 107 106
3 105 108 107
3 108 109 107
3 108 110 109
3 110 111 109
3 112 113 114
3 115 116 117
3 118 119 120
3 121 122 123
3 124 125 126
3 127 128 129
3 130 131 132
3 133 134 135
3 136 137 138
3 139 140 141
3 142 143 144
3 145 146 147
4 148 149 68 71
4 150 75 74 151
4 152 79 78 153
