ply
format ascii 1.0
comment Created by Blender 2.63 (sub 0) - www.blender.org, source file: ''
element vertex 159
property float x
property float y
property float z
property float nx
property float ny
property float nz
property float s
property float t
element face 42
property list uchar uint vertex_indices
end_header
1.000000 1.000000 -0.033015 0.000000 0.000000 -1.000000 0.000000 0.000000
1.000000 -1.000000 -0.033015 0.000000 0.000000 -1.000000 1.000000 0.000000
-1.000000 -1.000000 -0.033015 0.000000 0.000000 -1.000000 1.000000 1.000000
-1.000000 1.000000 -0.033015 0.000000 0.000000 -1.000000 0.000000 1.000000
-1.868927 -0.999999 1.000000 -0.000000 0.000000 -1.000000 0.000000 0.000000
-1.868927 1.000000 1.000000 -0.000000 0.000000 -1.000000 1.000000 0.000000
-1.000000 1.000000 1.000000 -0.000000 0.000000 -1.000000 1.000000 1.000000
-1.000000 -1.000000 1.000000 -0.000000 0.000000 -1.000000 0.000000 1.000000
1.000000 1.000000 -0.033015 1.000000 -0.000000 0.000000 0.000000 0.000000
1.000000 0.999999 1.000000 1.000000 -0.000000 0.000000 1.000000 0.000000
0.999999 -1.000001 1.000000 1.000000 -0.000000 0.000000 1.000000 1.000000
1.000000 -1.000000 -0.033015 1.000000 -0.000000 0.000000 0.000000 1.000000
1.000000 -1.000000 -0.033015 -0.000000 -1.000000 -0.000000 0.000000 0.000000
0.999999 -1.000001 1.000000 -0.000000 -1.000000 -0.000000 1.000000 0.000000
-1.000000 -1.000000 1.000000 -0.000000 -1.000000 -0.000000 1.000000 1.000000
-1.000000 -1.000000 -0.033015 -0.000000 -1.000000 -0.000000 0.000000 1.000000
-1.000000 -1.000000 -0.033015 -1.000000 -0.000000 0.000000 0.000000 0.000000
-1.000000 -1.000000 1.000000 -1.000000 -0.000000 0.000000 1.000000 0.000000
-1.000000 1.000000 1.000000 -1.000000 -0.000000 0.000000 1.000000 1.000000
-1.000000 1.000000 -0.033015 -1.000000 -0.000000 0.000000 0.000000 1.000000
1.000000 0.999999 1.000000 0.000000 1.000000 0.000000 0.000000 0.000000
1.000000 1.000000 -0.033015 0.000000 1.000000 0.000000 1.000000 0.000000
-1.000000 1.000000 -0.033015 0.000000 1.000000 0.000000 1.000000 1.000000
-1.000000 1.000000 1.000000 0.000000 1.000000 0.000000 0.000000 1.000000
1.000000 0.999999 2.138745 0.000000 -0.000000 1.000000 0.000000 0.000000
-1.000000 1.000000 2.138745 0.000000 -0.000000 1.000000 1.000000 0.000000
-1.000000 -1.000000 2.138745 0.000000 -0.000000 1.000000 1.000000 1.000000
0.999999 -1.000001 2.138745 0.000000 -0.000000 1.000000 0.000000 1.000000
0.999999 -1.000001 2.138745 -1.000000 0.000000 0.000000 0.000000 0.000000
0.999999 -1.000001 1.000000 -1.000000 0.000000 0.000000 1.000000 0.000000
0.999999 -2.027821 1.000000 -1.000000 0.000000 0.000000 1.000000 1.000000
0.999999 -2.027821 2.138745 -1.000000 0.000000 0.000000 0.000000 1.000000
1.000000 0.999999 1.000000 0.000001 1.000000 0.000000 0.000000 0.000000
-1.000000 1.000000 1.000000 0.000001 1.000000 0.000000 1.000000 0.000000
-1.000000 1.000000 2.138745 0.000001 1.000000 0.000000 1.000000 1.000000
1.000000 0.999999 2.138745 0.000001 1.000000 0.000000 0.000000 1.000000
0.999999 -1.000001 2.138745 -0.000000 -1.000000 0.000000 0.000000 0.000000
-1.000000 -1.000000 2.138745 -0.000000 -1.000000 0.000000 1.000000 0.000000
0.999999 -1.000001 1.000000 -0.000000 -1.000000 0.000000 0.000000 1.000000
2.482674 0.999999 2.138745 1.000000 -0.000000 0.000000 0.000000 0.000000
2.482673 -1.000001 2.138745 1.000000 -0.000000 0.000000 1.000000 0.000000
2.482673 -1.000001 1.000000 1.000000 -0.000000 0.000000 1.000000 1.000000
2.482674 0.999999 1.000000 1.000000 -0.000000 0.000000 0.000000 1.000000
2.482674 0.999999 2.138745 0.000000 0.000000 1.000000 1.000000 0.000000
2.482674 2.087793 2.138745 0.000000 0.000000 1.000000 1.000000 1.000000
1.000001 2.087794 2.138745 0.000000 0.000000 1.000000 0.000000 1.000000
2.482674 0.999999 1.000000 0.000000 0.000000 -1.000000 0.000000 0.000000
2.482673 -1.000001 1.000000 0.000000 0.000000 -1.000000 1.000000 0.000000
0.999999 -1.000001 1.000000 0.000000 0.000000 -1.000000 1.000000 1.000000
1.000000 0.999999 1.000000 0.000000 0.000000 -1.000000 0.000000 1.000000
1.000000 0.999999 2.465252 0.000000 1.000000 -0.000000 0.000000 0.000000
2.482674 0.999999 2.465252 0.000000 1.000000 -0.000000 1.000000 0.000000
2.482674 0.999999 2.138745 0.000000 1.000000 -0.000000 1.000000 1.000000
1.000000 0.999999 2.138745 0.000000 1.000000 -0.000000 0.000000 1.000000
0.999999 -2.027821 2.138745 -0.000001 -1.000000 0.000000 0.000000 0.000000
0.999999 -2.027821 1.000000 -0.000001 -1.000000 0.000000 1.000000 0.000000
2.482672 -2.027822 1.000000 -0.000001 -1.000000 0.000000 1.000000 1.000000
2.482672 -2.027822 2.138745 -0.000001 -1.000000 0.000000 0.000000 1.000000
2.482672 -2.027822 2.138745 1.000000 -0.000001 0.000000 0.000000 0.000000
2.482672 -2.027822 1.000000 1.000000 -0.000001 0.000000 1.000000 0.000000
2.482673 -1.000001 1.000000 1.000000 -0.000001 0.000000 1.000000 1.000000
2.482673 -1.000001 2.138745 1.000000 -0.000001 0.000000 0.000000 1.000000
0.999999 -1.000001 1.000000 0.000000 0.000000 -1.000000 0.000000 0.000000
2.482672 -2.027822 1.000000 0.000000 0.000000 -1.000000 1.000000 1.000000
0.999999 -2.027821 1.000000 0.000000 0.000000 -1.000000 0.000000 1.000000
2.482673 -1.000001 2.138745 0.000000 -0.000000 1.000000 0.000000 0.000000
0.999999 -1.000001 2.138745 0.000000 -0.000000 1.000000 1.000000 0.000000
0.999999 -2.027821 2.138745 0.000000 -0.000000 1.000000 1.000000 1.000000
2.482672 -2.027822 2.138745 0.000000 -0.000000 1.000000 0.000000 1.000000
1.000001 2.087794 1.000000 0.000001 1.000000 0.000000 0.000000 0.000000
1.000001 2.087794 2.138745 0.000001 1.000000 0.000000 1.000000 0.000000
2.482674 2.087793 2.138745 0.000001 1.000000 0.000000 1.000000 1.000000
2.482674 2.087793 1.000000 0.000001 1.000000 0.000000 0.000000 1.000000
1.000000 0.999999 1.000000 -1.000000 0.000001 0.000000 0.000000 0.000000
1.000000 0.999999 2.138745 -1.000000 0.000001 0.000000 1.000000 0.000000
1.000001 2.087794 2.138745 -1.000000 0.000001 0.000000 1.000000 1.000000
1.000001 2.087794 1.000000 -1.000000 0.000001 0.000000 0.000000 1.000000
2.482674 2.087793 1.000000 1.000000 -0.000000 0.000000 0.000000 0.000000
2.482674 2.087793 2.138745 1.000000 -0.000000 0.000000 1.000000 0.000000
2.482674 0.999999 2.138745 1.000000 -0.000000 0.000000 1.000000 1.000000
1.000000 0.999999 1.000000 0.000000 -0.000000 -1.000000 1.000000 0.000000
1.000001 2.087794 1.000000 0.000000 -0.000000 -1.000000 1.000000 1.000000
2.482674 2.087793 1.000000 0.000000 -0.000000 -1.000000 0.000000 1.000000
1.000000 0.999999 2.465252 0.000000 0.000000 1.000000 0.000000 0.000000
0.999999 -1.000001 2.465252 0.000000 0.000000 1.000000 1.000000 0.000000
2.482673 -1.000001 2.465252 0.000000 0.000000 1.000000 1.000000 1.000000
2.482674 0.999999 2.465252 0.000000 0.000000 1.000000 0.000000 1.000000
1.000000 0.999999 2.138745 -1.000000 0.000001 0.000000 0.000000 0.000000
0.999999 -1.000001 2.138745 -1.000000 0.000001 0.000000 1.000000 0.000000
0.999999 -1.000001 2.465252 -1.000000 0.000001 0.000000 1.000000 1.000000
1.000000 0.999999 2.465252 -1.000000 0.000001 0.000000 0.000000 1.000000
2.482674 0.999999 2.465252 1.000000 -0.000000 0.000000 0.000000 0.000000
2.482673 -1.000001 2.465252 1.000000 -0.000000 0.000000 1.000000 0.000000
2.482673 -1.000001 2.138745 1.000000 -0.000000 0.000000 1.000000 1.000000
2.482674 0.999999 2.138745 1.000000 -0.000000 0.000000 0.000000 1.000000
2.482673 -1.000001 2.465252 0.000000 -1.000000 0.000000 0.000000 0.000000
0.999999 -1.000001 2.465252 0.000000 -1.000000 0.000000 1.000000 0.000000
0.999999 -1.000001 2.138745 0.000000 -1.000000 0.000000 1.000000 1.000000
2.482673 -1.000001 2.138745 0.000000 -1.000000 0.000000 0.000000 1.000000
-1.868927 -0.999999 1.000000 0.000000 -1.000000 0.000000 0.000000 0.000000
-1.868927 -0.999999 2.138745 0.000000 -1.000000 0.000000 1.000000 0.000000
-2.473994 -0.999999 2.138745 0.000000 -1.000000 0.000000 1.000000 1.000000
-2.473994 -0.999999 1.000000 0.000000 -1.000000 0.000000 0.000000 1.000000
-1.868927 -0.999999 2.138745 -0.000001 -1.000000 0.000000 0.000000 0.000000
-1.000000 -1.000000 2.138745 -0.000001 -1.000000 0.000000 1.000000 0.000000
-1.000000 -1.000000 2.723881 -0.000001 -1.000000 0.000000 1.000000 1.000000
-1.868927 -0.999999 2.723881 -0.000001 -1.000000 0.000000 0.000000 1.000000
-1.000000 1.000000 2.138745 -0.000000 1.000000 0.000000 0.000000 0.000000
-1.000000 1.000000 1.000000 -0.000000 1.000000 0.000000 1.000000 0.000000
-1.868927 1.000000 1.000000 -0.000000 1.000000 0.000000 1.000000 1.000000
-1.868927 1.000000 2.138745 -0.000000 1.000000 0.000000 0.000000 1.000000
-1.000000 -1.000000 1.000000 -0.000001 -1.000000 0.000000 0.000000 0.000000
-1.868927 -0.999999 2.138745 -0.000001 -1.000000 0.000000 1.000000 1.000000
-1.868927 -0.999999 1.000000 -0.000001 -1.000000 0.000000 0.000000 1.000000
-1.000000 -1.000000 2.723881 -0.000000 0.000000 1.000000 0.000000 0.000000
-1.000000 1.000000 2.723881 -0.000000 0.000000 1.000000 1.000000 0.000000
-1.868927 1.000000 2.723881 -0.000000 0.000000 1.000000 1.000000 1.000000
-1.868927 -0.999999 2.723881 -0.000000 0.000000 1.000000 0.000000 1.000000
-1.000000 -1.000000 2.138745 1.000000 0.000000 0.000000 0.000000 0.000000
-1.000000 1.000000 2.138745 1.000000 0.000000 0.000000 1.000000 0.000000
-1.000000 1.000000 2.723881 1.000000 0.000000 0.000000 1.000000 1.000000
-1.000000 -1.000000 2.723881 1.000000 0.000000 0.000000 0.000000 1.000000
-1.868927 -0.999999 2.723881 -1.000000 0.000000 0.000000 0.000000 0.000000
-1.868927 1.000000 2.723881 -1.000000 0.000000 0.000000 1.000000 0.000000
-1.868927 1.000000 2.138745 -1.000000 0.000000 0.000000 1.000000 1.000000
-1.868927 -0.999999 2.138745 -1.000000 0.000000 0.000000 0.000000 1.000000
-1.868927 1.000000 2.138745 0.000000 1.000000 0.000000 1.000000 0.000000
-1.868927 1.000000 2.723881 0.000000 1.000000 0.000000 1.000000 1.000000
-1.000000 1.000000 2.723881 0.000000 1.000000 0.000000 0.000000 1.000000
-2.473994 -0.999999 2.138745 -1.000000 0.000000 0.000000 0.000000 0.000000
-2.473994 1.000000 2.138745 -1.000000 0.000000 0.000000 1.000000 0.000000
-2.473994 1.000000 1.000000 -1.000000 0.000000 0.000000 1.000000 1.000000
-2.473994 -0.999999 1.000000 -1.000000 0.000000 0.000000 0.000000 1.000000
-2.473994 -0.999999 0.294426 0.000000 -1.000000 -0.000000 0.000000 0.000000
-1.868927 -0.999999 0.294426 0.000000 -1.000000 -0.000000 1.000000 0.000000
-1.868927 -0.999999 1.000000 0.000000 -1.000000 -0.000000 1.000000 1.000000
-1.868927 -0.999999 2.138745 -0.000000 0.000000 1.000000 0.000000 0.000000
-1.868927 1.000000 2.138745 -0.000000 0.000000 1.000000 1.000000 0.000000
-2.473994 1.000000 2.138745 -0.000000 0.000000 1.000000 1.000000 1.000000
-2.473994 -0.999999 2.138745 -0.000000 0.000000 1.000000 0.000000 1.000000
-1.868927 1.000000 2.138745 -0.000000 1.000000 0.000000 0.000000 0.000000
-1.868927 1.000000 1.000000 -0.000000 1.000000 0.000000 1.000000 0.000000
-2.473994 1.000000 1.000000 -0.000000 1.000000 0.000000 1.000000 1.000000
-2.473994 1.000000 2.138745 -0.000000 1.000000 0.000000 0.000000 1.000000
-2.473994 -0.999999 0.294426 -0.000000 0.000000 -1.000000 0.000000 0.000000
-2.473994 1.000000 0.294426 -0.000000 0.000000 -1.000000 1.000000 0.000000
-1.868927 1.000000 0.294426 -0.000000 0.000000 -1.000000 1.000000 1.000000
-1.868927 -0.999999 0.294426 -0.000000 0.000000 -1.000000 0.000000 1.000000
-2.473994 1.000000 1.000000 0.000000 1.000000 -0.000000 0.000000 0.000000
-1.868927 1.000000 0.294426 0.000000 1.000000 -0.000000 1.000000 1.000000
-2.473994 1.000000 0.294426 0.000000 1.000000 -0.000000 0.000000 1.000000
-1.868927 -0.999999 0.294426 1.000000 0.000000 0.000000 0.000000 0.000000
-1.868927 1.000000 0.294426 1.000000 0.000000 0.000000 1.000000 0.000000
-1.868927 1.000000 1.000000 1.000000 0.000000 0.000000 1.000000 1.000000
-1.868927 -0.999999 1.000000 1.000000 0.000000 0.000000 0.000000 1.000000
-2.473994 -0.999999 1.000000 -1.000000 0.000000 0.000000 0.000000 0.000000
-2.473994 1.000000 1.000000 -1.000000 0.000000 0.000000 1.000000 0.000000
-2.473994 1.000000 0.294426 -1.000000 0.000000 0.000000 1.000000 1.000000
-2.473994 -0.999999 0.294426 -1.000000 0.000000 0.000000 0.000000 1.000000
4 0 1 2 3
4 4 5 6 7
4 8 9 10 11
4 12 13 14 15
4 16 17 18 19
4 20 21 22 23
4 24 25 26 27
4 28 29 30 31
4 32 33 34 35
4 36 37 14 38
4 39 40 41 42
4 24 43 44 45
4 46 47 48 49
4 50 51 52 53
4 54 55 56 57
4 58 59 60 61
4 62 47 63 64
4 65 66 67 68
4 69 70 71 72
4 73 74 75 76
4 77 78 79 42
4 46 80 81 82
4 83 84 85 86
4 87 88 89 90
4 91 92 93 94
4 95 96 97 98
4 99 100 101 102
4 103 104 105 106
4 107 108 109 110
4 111 104 112 113
4 114 115 116 117
4 118 119 120 121
4 122 123 124 125
4 107 126 127 128
4 129 130 131 132
4 133 134 135 102
4 136 137 138 139
4 140 141 142 143
4 144 145 146 147
4 148 141 149 150
4 151 152 153 154
4 155 156 157 158
