ply
format ascii 1.0
comment Created by Blender 2.63 (sub 0) - www.blender.org, source file: ''
element vertex 118
property float x
property float y
property float z
property float nx
property float ny
property float nz
property float s
property float t
element face 30
property list uchar uint vertex_indices
end_header
1.000000 1.000000 -1.828694 0.000000 0.000000 -1.000000 0.000000 0.000000
1.000000 -1.000000 -1.828694 0.000000 0.000000 -1.000000 1.000000 0.000000
-1.000000 -1.000000 -1.828694 0.000000 0.000000 -1.000000 1.000000 1.000000
-1.000000 1.000000 -1.828694 0.000000 0.000000 -1.000000 0.000000 1.000000
-3.000000 -0.999999 1.000000 -0.000000 0.000000 -1.000000 0.000000 0.000000
-3.000000 1.000000 1.000000 -0.000000 0.000000 -1.000000 1.000000 0.000000
-1.000000 1.000000 1.000000 -0.000000 0.000000 -1.000000 1.000000 1.000000
-1.000000 -1.000000 1.000000 -0.000000 0.000000 -1.000000 0.000000 1.000000
1.000000 1.000000 -1.828694 1.000000 -0.000000 0.000000 0.000000 0.000000
1.000000 0.999999 1.000000 1.000000 -0.000000 0.000000 1.000000 0.000000
0.999999 -1.000001 1.000000 1.000000 -0.000000 0.000000 1.000000 1.000000
1.000000 -1.000000 -1.828694 1.000000 -0.000000 0.000000 0.000000 1.000000
1.000000 -1.000000 -1.828694 -0.000000 -1.000000 -0.000000 0.000000 0.000000
0.999999 -1.000001 1.000000 -0.000000 -1.000000 -0.000000 1.000000 0.000000
-1.000000 -1.000000 1.000000 -0.000000 -1.000000 -0.000000 1.000000 1.000000
-1.000000 -1.000000 -1.828694 -0.000000 -1.000000 -0.000000 0.000000 1.000000
-1.000000 -1.000000 -1.828694 -1.000000 0.000000 -0.000000 0.000000 0.000000
-1.000000 -1.000000 1.000000 -1.000000 0.000000 -0.000000 1.000000 0.000000
-1.000000 1.000000 1.000000 -1.000000 0.000000 -0.000000 1.000000 1.000000
-1.000000 1.000000 -1.828694 -1.000000 0.000000 -0.000000 0.000000 1.000000
1.000000 0.999999 1.000000 0.000000 1.000000 0.000000 0.000000 0.000000
1.000000 1.000000 -1.828694 0.000000 1.000000 0.000000 1.000000 0.000000
-1.000000 1.000000 -1.828694 0.000000 1.000000 0.000000 1.000000 1.000000
-1.000000 1.000000 1.000000 0.000000 1.000000 0.000000 0.000000 1.000000
0.999999 -1.000001 1.768969 0.000000 1.000000 0.000000 0.000000 0.000000
-1.000000 -1.000000 1.768969 0.000000 1.000000 0.000000 1.000000 0.000000
-1.000000 -1.000000 2.124364 0.000000 1.000000 0.000000 1.000000 1.000000
0.999999 -1.000001 2.124364 0.000000 1.000000 0.000000 0.000000 1.000000
0.999999 -1.000001 2.124364 -0.000001 -1.000000 0.000000 0.000000 0.000000
0.999999 -1.000001 1.000000 -0.000001 -1.000000 0.000000 1.000000 0.000000
2.999999 -1.000002 1.000000 -0.000001 -1.000000 0.000000 1.000000 1.000000
2.999999 -1.000002 2.124364 -0.000001 -1.000000 0.000000 0.000000 1.000000
1.000001 3.000000 1.000000 1.000000 -0.000000 0.000000 0.000000 0.000000
1.000001 3.000000 2.124364 1.000000 -0.000000 0.000000 1.000000 0.000000
1.000000 0.999999 2.124364 1.000000 -0.000000 0.000000 1.000000 1.000000
1.000000 0.999999 1.000000 1.000000 -0.000000 0.000000 0.000000 1.000000
0.999999 -1.000001 2.124364 0.000000 -0.000000 1.000000 0.000000 0.000000
-1.000000 -1.000000 2.124364 0.000000 -0.000000 1.000000 1.000000 0.000000
-1.000001 -3.000000 2.124364 0.000000 -0.000000 1.000000 1.000000 1.000000
0.999998 -3.000000 2.124364 0.000000 -0.000000 1.000000 0.000000 1.000000
3.000000 0.999998 2.124364 1.000000 -0.000001 0.000000 0.000000 0.000000
2.999999 -1.000002 2.124364 1.000000 -0.000001 0.000000 1.000000 0.000000
2.999999 -1.000002 1.000000 1.000000 -0.000001 0.000000 1.000000 1.000000
3.000000 0.999998 1.000000 1.000000 -0.000001 0.000000 0.000000 1.000000
1.000000 0.999999 1.000000 0.000001 1.000000 0.000000 0.000000 0.000000
1.000000 0.999999 2.124364 0.000001 1.000000 0.000000 1.000000 0.000000
3.000000 0.999998 2.124364 0.000001 1.000000 0.000000 1.000000 1.000000
3.000000 0.999998 1.000000 0.000001 1.000000 0.000000 0.000000 1.000000
3.000000 0.999998 1.000000 0.000000 0.000000 -1.000000 0.000000 0.000000
2.999999 -1.000002 1.000000 0.000000 0.000000 -1.000000 1.000000 0.000000
0.999999 -1.000001 1.000000 0.000000 0.000000 -1.000000 1.000000 1.000000
1.000000 0.999999 1.000000 0.000000 0.000000 -1.000000 0.000000 1.000000
1.000000 0.999999 2.124364 0.000000 0.000000 1.000000 0.000000 0.000000
0.999999 -1.000001 2.124364 0.000000 0.000000 1.000000 1.000000 0.000000
2.999999 -1.000002 2.124364 0.000000 0.000000 1.000000 1.000000 1.000000
3.000000 0.999998 2.124364 0.000000 0.000000 1.000000 0.000000 1.000000
0.999998 -3.000000 2.124364 -0.000000 -1.000000 0.000000 0.000000 0.000000
-1.000001 -3.000000 2.124364 -0.000000 -1.000000 0.000000 1.000000 0.000000
-1.000001 -3.000000 1.000000 -0.000000 -1.000000 0.000000 1.000000 1.000000
0.999998 -3.000000 1.000000 -0.000000 -1.000000 0.000000 0.000000 1.000000
0.999998 -3.000000 2.124364 1.000000 -0.000000 0.000000 0.000000 0.000000
0.999998 -3.000000 1.000000 1.000000 -0.000000 0.000000 1.000000 0.000000
0.999999 -1.000001 2.124364 1.000000 -0.000000 0.000000 0.000000 1.000000
-1.000001 -3.000000 1.000000 -1.000000 0.000000 0.000000 0.000000 0.000000
-1.000001 -3.000000 2.124364 -1.000000 0.000000 0.000000 1.000000 0.000000
-1.000000 -1.000000 2.124364 -1.000000 0.000000 0.000000 1.000000 1.000000
-1.000000 -1.000000 1.000000 -1.000000 0.000000 0.000000 0.000000 1.000000
0.999998 -3.000000 1.000000 0.000000 -0.000000 -1.000000 0.000000 0.000000
-1.000001 -3.000000 1.000000 0.000000 -0.000000 -1.000000 1.000000 0.000000
-1.000000 -1.000000 1.000000 0.000000 -0.000000 -1.000000 1.000000 1.000000
0.999999 -1.000001 1.000000 0.000000 -0.000000 -1.000000 0.000000 1.000000
-3.000000 -0.999999 2.124364 -1.000000 0.000000 0.000000 0.000000 0.000000
-3.000000 1.000000 2.124364 -1.000000 0.000000 0.000000 1.000000 0.000000
-3.000000 1.000000 1.000000 -1.000000 0.000000 0.000000 1.000000 1.000000
-3.000000 -0.999999 1.000000 -1.000000 0.000000 0.000000 0.000000 1.000000
-1.000000 -1.000000 2.124364 -0.000000 0.000000 1.000000 0.000000 0.000000
-1.000000 1.000000 2.124364 -0.000000 0.000000 1.000000 1.000000 0.000000
-3.000000 1.000000 2.124364 -0.000000 0.000000 1.000000 1.000000 1.000000
-3.000000 -0.999999 2.124364 -0.000000 0.000000 1.000000 0.000000 1.000000
-1.000000 1.000000 2.124364 0.000000 1.000000 0.000000 0.000000 0.000000
-1.000000 1.000000 1.000000 0.000000 1.000000 0.000000 1.000000 0.000000
-3.000000 1.000000 1.000000 0.000000 1.000000 0.000000 1.000000 1.000000
-3.000000 1.000000 2.124364 0.000000 1.000000 0.000000 0.000000 1.000000
-1.000000 -1.000000 1.000000 -0.000000 -1.000000 0.000000 0.000000 0.000000
-1.000000 -1.000000 2.124364 -0.000000 -1.000000 0.000000 1.000000 0.000000
-3.000000 -0.999999 2.124364 -0.000000 -1.000000 0.000000 1.000000 1.000000
-3.000000 -0.999999 1.000000 -0.000000 -1.000000 0.000000 0.000000 1.000000
1.000001 3.000000 1.000000 0.000000 1.000000 0.000000 0.000000 0.000000
-0.999999 3.000000 1.000000 0.000000 1.000000 0.000000 1.000000 0.000000
-0.999999 3.000000 2.124364 0.000000 1.000000 0.000000 1.000000 1.000000
1.000001 3.000000 2.124364 0.000000 1.000000 0.000000 0.000000 1.000000
-0.999999 3.000000 2.124364 -1.000000 0.000000 0.000000 0.000000 0.000000
-0.999999 3.000000 1.000000 -1.000000 0.000000 0.000000 1.000000 0.000000
-1.000000 1.000000 2.124364 -1.000000 0.000000 0.000000 0.000000 1.000000
1.000000 0.999999 1.000000 0.000000 -0.000000 -1.000000 0.000000 0.000000
-1.000000 1.000000 1.000000 0.000000 -0.000000 -1.000000 1.000000 0.000000
-0.999999 3.000000 1.000000 0.000000 -0.000000 -1.000000 1.000000 1.000000
1.000001 3.000000 1.000000 0.000000 -0.000000 -1.000000 0.000000 1.000000
1.000001 3.000000 2.124364 0.000000 -0.000000 1.000000 0.000000 0.000000
-0.999999 3.000000 2.124364 0.000000 -0.000000 1.000000 1.000000 0.000000
-1.000000 1.000000 2.124364 0.000000 -0.000000 1.000000 1.000000 1.000000
1.000000 0.999999 2.124364 0.000000 -0.000000 1.000000 0.000000 1.000000
1.000000 0.999999 1.768969 0.000000 -0.000000 1.000000 0.000000 0.000000
-1.000000 1.000000 1.768969 0.000000 -0.000000 1.000000 1.000000 0.000000
-1.000000 -1.000000 1.768969 0.000000 -0.000000 1.000000 1.000000 1.000000
0.999999 -1.000001 1.768969 0.000000 -0.000000 1.000000 0.000000 1.000000
-1.000000 -1.000000 1.768969 1.000000 -0.000000 0.000000 0.000000 0.000000
-1.000000 1.000000 1.768969 1.000000 -0.000000 0.000000 1.000000 0.000000
-1.000000 1.000000 2.124364 1.000000 -0.000000 0.000000 1.000000 1.000000
-1.000000 -1.000000 2.124364 1.000000 -0.000000 0.000000 0.000000 1.000000
1.000000 0.999999 1.768969 -1.000000 0.000001 0.000000 0.000000 0.000000
0.999999 -1.000001 1.768969 -1.000000 0.000001 0.000000 1.000000 0.000000
0.999999 -1.000001 2.124364 -1.000000 0.000001 0.000000 1.000000 1.000000
1.000000 0.999999 2.124364 -1.000000 0.000001 0.000000 0.000000 1.000000
1.000000 0.999999 2.124364 -0.000000 -1.000000 0.000000 0.000000 0.000000
-1.000000 1.000000 2.124364 -0.000000 -1.000000 0.000000 1.000000 0.000000
-1.000000 1.000000 1.768969 -0.000000 -1.000000 0.000000 1.000000 1.000000
1.000000 0.999999 1.768969 -0.000000 -1.000000 0.000000 0.000000 1.000000
4 0 1 2 3
4 4 5 6 7
4 8 9 10 11
4 12 13 14 15
4 16 17 18 19
4 20 21 22 23
4 24 25 26 27
4 28 29 30 31
4 32 33 34 35
4 36 37 38 39
4 40 41 42 43
4 44 45 46 47
4 48 49 50 51
4 52 53 54 55
4 56 57 58 59
4 60 61 10 62
4 63 64 65 66
4 67 68 69 70
4 71 72 73 74
4 75 76 77 78
4 79 80 81 82
4 83 84 85 86
4 87 88 89 90
4 91 92 18 93
4 94 95 96 97
4 98 99 100 101
4 102 103 104 105
4 106 107 108 109
4 110 111 112 113
4 114 115 116 117
