ply
format ascii 1.0
comment Created by Blender 2.63 (sub 0) - www.blender.org, source file: ''
element vertex 225
property float x
property float y
property float z
property float nx
property float ny
property float nz
property float s
property float t
element face 196
property list uchar uint vertex_indices
end_header
-0.857143 -0.857143 -0.000060 0.133793 -0.010163 0.990936 0.928571 0.928571
-0.714286 -0.857143 -0.016453 0.067232 -0.039033 0.996948 0.857143 0.928571
-0.714286 -0.714286 -0.010740 0.054048 0.007935 0.998505 0.857143 0.857143
-0.857143 -0.714286 -0.000397 0.082705 0.044343 0.995575 0.928571 0.857143
-1.000000 -0.714286 0.011379 0.092257 0.067690 0.993408 1.000000 0.857143
-1.000000 -0.857143 0.022489 0.149266 0.020234 0.988586 1.000000 0.928571
-0.964286 -0.964286 0.019836 0.186529 -0.004089 0.982421 0.982143 0.982143
-0.857143 -1.000000 -0.005231 0.158147 -0.034059 0.986816 0.928571 1.000000
-0.714286 -1.000000 -0.027974 0.067232 -0.054598 0.996216 0.857143 1.000000
0.857143 -0.857143 -0.022391 -0.126743 0.070498 0.989410 0.071429 0.928571
1.000000 -0.857143 0.002204 -0.172430 0.066744 0.982727 0.000000 0.928571
1.000000 -0.714286 -0.002672 -0.191931 -0.003479 0.981384 0.000000 0.857143
0.857143 -0.714286 -0.030359 -0.138371 0.007843 0.990326 0.071429 0.857143
0.714286 -0.714286 -0.040892 0.024720 0.026612 0.999329 0.142857 0.857143
0.714286 -0.857143 -0.033324 0.008484 0.047670 0.998810 0.142857 0.928571
0.714286 -1.000000 -0.022359 -0.015656 0.054689 0.998352 0.142857 1.000000
0.857143 -1.000000 -0.007743 -0.122105 0.091586 0.988250 0.071429 1.000000
0.964286 -0.964286 0.005747 -0.163121 0.094760 0.982025 0.017857 0.982143
0.571429 -0.857143 -0.016932 0.117069 -0.013611 0.993011 0.214286 0.928571
0.571429 -0.714286 -0.017114 0.150182 0.037202 0.987945 0.214286 0.857143
0.428571 -0.714286 0.010266 0.089785 0.040925 0.995117 0.285714 0.857143
0.428571 -0.857143 0.004275 0.082980 -0.058535 0.994812 0.285714 0.928571
0.428571 -1.000000 -0.013773 0.075320 -0.091647 0.992920 0.285714 1.000000
0.571429 -1.000000 -0.022193 0.080416 -0.030457 0.996277 0.214286 1.000000
0.285714 -0.857143 0.007790 0.008423 -0.040925 0.999115 0.357143 0.928571
0.285714 -0.714286 0.010537 -0.014130 0.038667 0.999146 0.357143 0.857143
0.142857 -0.714286 0.000720 -0.020447 0.025788 0.999451 0.428571 0.857143
0.142857 -0.857143 0.003954 -0.004364 0.010712 0.999908 0.428571 0.928571
0.142857 -1.000000 0.006135 0.021638 0.005676 0.999725 0.428571 1.000000
0.285714 -1.000000 -0.003630 0.034181 -0.067568 0.997101 0.357143 1.000000
0.000000 -0.857143 0.003111 -0.002503 0.048860 0.998779 0.500000 0.928571
0.000000 -0.714286 -0.002167 -0.001617 0.002777 0.999969 0.500000 0.857143
-0.142857 -0.714286 -0.004566 -0.031404 -0.015931 0.999359 0.571429 0.857143
-0.142857 -0.857143 0.000824 -0.033357 0.064577 0.997345 0.571429 0.928571
-0.142857 -1.000000 0.014794 -0.029603 0.091281 0.995361 0.571429 1.000000
0.000000 -1.000000 0.013420 0.009644 0.064211 0.997864 0.500000 1.000000
-0.285714 -0.857143 -0.007343 -0.062136 0.062380 0.996094 0.642857 0.928571
-0.285714 -0.714286 -0.012923 -0.059236 -0.018830 0.998047 0.642857 0.857143
-0.428571 -0.714286 -0.019913 -0.034883 -0.013550 0.999298 0.714286 0.857143
-0.428571 -0.857143 -0.016193 -0.054201 0.034730 0.997925 0.714286 0.928571
-0.428571 -1.000000 -0.007116 -0.076083 0.050935 0.995788 0.714286 1.000000
-0.285714 -1.000000 0.006825 -0.067629 0.089389 0.993683 0.642857 1.000000
-0.571429 -0.857143 -0.020530 -0.010651 -0.013398 0.999847 0.785714 0.928571
-0.571429 -0.714286 -0.018215 0.012543 -0.007935 0.999878 0.785714 0.857143
-0.571429 -1.000000 -0.023659 -0.036836 -0.015259 0.999176 0.785714 1.000000
0.857143 0.857143 -0.010005 -0.038453 0.015534 0.999115 0.071429 0.071429
1.000000 0.857143 -0.003409 -0.045503 0.001038 0.998962 0.000000 0.071429
0.964286 0.964286 -0.003775 -0.066103 0.008087 0.997772 0.017857 0.017857
0.857143 1.000000 -0.014034 -0.050569 0.024873 0.998383 0.071429 0.000000
0.714286 1.000000 -0.020940 -0.000275 0.028169 0.999573 0.142857 0.000000
0.714286 0.857143 -0.014042 -0.005921 0.023682 0.999695 0.142857 0.071429
0.714286 0.714286 -0.009993 -0.003998 0.010163 0.999939 0.142857 0.142857
0.857143 0.714286 -0.008217 -0.019837 -0.002258 0.999786 0.071429 0.142857
1.000000 0.714286 -0.006496 -0.025086 -0.007141 0.999634 0.000000 0.142857
0.857143 0.571429 -0.010910 -0.023377 -0.017670 0.999542 0.071429 0.214286
1.000000 0.571429 -0.006592 -0.037385 -0.009217 0.999237 0.000000 0.214286
0.714286 0.571429 -0.011644 0.018677 -0.010987 0.999756 0.142857 0.214286
0.714286 0.428571 -0.017628 0.036225 -0.038514 0.998596 0.142857 0.285714
0.857143 0.428571 -0.015517 -0.049745 -0.023072 0.998474 0.071429 0.285714
1.000000 0.428571 -0.004477 -0.078372 -0.005036 0.996887 0.000000 0.285714
0.857143 0.285714 -0.019470 -0.089389 -0.006317 0.995972 0.071429 0.357143
1.000000 0.285714 -0.000930 -0.127354 0.015687 0.991729 0.000000 0.357143
0.714286 0.285714 -0.026581 0.025178 -0.041688 0.998810 0.142857 0.357143
0.714286 0.142857 -0.031203 -0.004486 0.009796 0.999939 0.142857 0.428571
0.857143 0.142857 -0.018113 -0.129093 0.044374 0.990631 0.071429 0.428571
1.000000 0.142857 0.007161 -0.170080 0.062960 0.983398 0.000000 0.428571
0.857143 0.000000 -0.006791 -0.159734 0.071200 0.984558 0.071429 0.500000
1.000000 0.000000 0.022907 -0.200415 0.083254 0.976135 0.000000 0.500000
0.714286 0.000000 -0.024198 -0.034455 0.045442 0.998352 0.142857 0.500000
0.714286 -0.142857 -0.018041 -0.060915 -0.005493 0.998108 0.142857 0.571429
0.857143 -0.142857 0.002637 -0.182104 0.016602 0.983123 0.071429 0.571429
1.000000 -0.142857 0.035215 -0.221015 0.025666 0.974914 0.000000 0.571429
0.857143 -0.285714 -0.001690 -0.194830 -0.054170 0.979308 0.071429 0.642857
1.000000 -0.285714 0.032991 -0.232398 -0.049471 0.971343 0.000000 0.642857
0.714286 -0.285714 -0.025209 -0.077792 -0.063784 0.994903 0.142857 0.642857
0.714286 -0.428571 -0.036237 -0.063601 -0.050356 0.996673 0.142857 0.714286
0.857143 -0.428571 -0.013111 -0.190252 -0.076357 0.978759 0.071429 0.714286
1.000000 -0.428571 0.021703 -0.230934 -0.083773 0.969329 0.000000 0.714286
0.857143 -0.571429 -0.024967 -0.165716 -0.054415 0.984649 0.071429 0.785714
1.000000 -0.571429 0.006822 -0.214972 -0.071078 0.973998 0.000000 0.785714
0.714286 -0.571429 -0.041664 -0.013886 -0.006623 0.999878 0.142857 0.785714
0.571429 0.857143 -0.012959 0.044710 -0.000092 0.998993 0.214286 0.071429
0.571429 1.000000 -0.011244 0.062838 -0.008332 0.997986 0.214286 0.000000
0.428571 1.000000 0.004645 0.100345 -0.030305 0.994476 0.285714 0.000000
0.428571 0.857143 -0.003616 0.102817 -0.015595 0.994568 0.285714 0.071429
0.428571 0.714286 -0.005200 0.102664 0.028565 0.994293 0.285714 0.142857
0.571429 0.714286 -0.011878 0.033357 0.024506 0.999115 0.214286 0.142857
0.571429 0.571429 -0.005208 0.065310 0.029328 0.997406 0.214286 0.214286
0.428571 0.571429 0.006570 0.093356 0.047365 0.994476 0.285714 0.214286
0.428571 0.428571 0.016082 0.079989 -0.014069 0.996673 0.285714 0.285714
0.571429 0.428571 -0.001882 0.104312 -0.021668 0.994293 0.214286 0.285714
0.571429 0.285714 -0.010834 0.112400 -0.060518 0.991791 0.214286 0.357143
0.428571 0.285714 0.007724 0.068697 -0.071230 0.995086 0.285714 0.357143
0.428571 0.142857 -0.003974 0.056551 -0.039613 0.997589 0.285714 0.428571
0.571429 0.142857 -0.019926 0.094363 -0.019166 0.995331 0.214286 0.428571
0.571429 0.000000 -0.017023 0.069094 0.018891 0.997406 0.214286 0.500000
0.428571 0.000000 -0.004480 0.040986 -0.001984 0.999146 0.285714 0.500000
0.428571 -0.142857 -0.005495 0.032533 -0.041536 0.998596 0.285714 0.571429
0.571429 -0.142857 -0.014917 0.044801 -0.029695 0.998535 0.214286 0.571429
0.571429 -0.285714 -0.026404 0.031434 -0.070193 0.997009 0.214286 0.642857
0.428571 -0.285714 -0.018719 0.040681 -0.063417 0.997131 0.285714 0.642857
0.428571 -0.428571 -0.025669 0.060884 0.027253 0.997742 0.285714 0.714286
0.571429 -0.428571 -0.035988 0.053529 -0.008148 0.998505 0.214286 0.714286
0.571429 -0.571429 -0.028179 0.111942 0.059664 0.991913 0.214286 0.785714
0.428571 -0.571429 -0.007862 0.080813 0.104007 0.991272 0.285714 0.785714
0.285714 0.857143 0.017127 0.107852 0.011414 0.994079 0.357143 0.071429
0.285714 1.000000 0.016317 0.083773 0.010132 0.996429 0.357143 0.000000
0.142857 1.000000 0.018345 -0.016266 0.068331 0.997528 0.428571 0.000000
0.142857 0.857143 0.030768 -0.001434 0.050539 0.998718 0.428571 0.071429
0.142857 0.714286 0.036461 0.005768 -0.002716 0.999969 0.428571 0.142857
0.285714 0.714286 0.018717 0.121342 0.015259 0.992462 0.357143 0.142857
0.285714 0.571429 0.021867 0.073214 0.002411 0.997284 0.357143 0.214286
0.142857 0.571429 0.028698 -0.024751 -0.058657 0.997955 0.428571 0.214286
0.142857 0.428571 0.014301 -0.060762 -0.084597 0.994537 0.428571 0.285714
0.285714 0.428571 0.020627 0.009613 -0.046327 0.998871 0.357143 0.285714
0.285714 0.285714 0.009045 -0.020386 -0.080264 0.996551 0.357143 0.357143
0.142857 0.285714 0.000098 -0.069247 -0.079958 0.994385 0.428571 0.357143
0.142857 0.142857 -0.010376 -0.059633 -0.044038 0.997223 0.428571 0.428571
0.285714 0.142857 -0.003038 -0.025788 -0.048494 0.998474 0.357143 0.428571
0.285714 0.000000 -0.005783 -0.028047 -0.011017 0.999542 0.357143 0.500000
0.142857 0.000000 -0.013580 -0.046999 -0.004883 0.998871 0.428571 0.500000
0.142857 -0.142857 -0.012992 -0.016236 0.009125 0.999817 0.428571 0.571429
0.285714 -0.142857 -0.007275 -0.015259 -0.028291 0.999481 0.357143 0.571429
0.285714 -0.285714 -0.015598 0.019013 -0.034486 0.999207 0.357143 0.642857
0.142857 -0.285714 -0.012086 0.036042 0.014588 0.999237 0.428571 0.642857
0.142857 -0.428571 -0.009688 0.059633 0.028199 0.997803 0.428571 0.714286
0.285714 -0.428571 -0.018583 0.036561 0.036042 0.998657 0.357143 0.714286
0.285714 -0.571429 -0.004063 0.011200 0.091067 0.995758 0.357143 0.785714
0.142857 -0.571429 -0.004624 0.022126 0.036409 0.999084 0.428571 0.785714
0.000000 0.857143 0.018803 -0.108127 0.061190 0.992218 0.500000 0.071429
0.000000 1.000000 0.005301 -0.104373 0.085574 0.990844 0.500000 0.000000
-0.142857 1.000000 -0.010491 -0.086520 0.071200 0.993683 0.571429 0.000000
-0.142857 0.857143 -0.000554 -0.095462 0.048830 0.994232 0.571429 0.071429
-0.142857 0.714286 0.003289 -0.108554 -0.018586 0.993896 0.571429 0.142857
0.000000 0.714286 0.024622 -0.114017 -0.012116 0.993378 0.500000 0.142857
0.000000 0.571429 0.015076 -0.114170 -0.079867 0.990234 0.500000 0.214286
-0.142857 0.571429 -0.005057 -0.109287 -0.075045 0.991150 0.571429 0.214286
-0.142857 0.428571 -0.016842 -0.092410 -0.065065 0.993561 0.571429 0.285714
0.000000 0.428571 -0.000345 -0.103580 -0.087802 0.990722 0.500000 0.285714
0.000000 0.285714 -0.012152 -0.080630 -0.061495 0.994842 0.500000 0.357143
-0.142857 0.285714 -0.023314 -0.057711 -0.026124 0.997986 0.571429 0.357143
-0.142857 0.142857 -0.025088 -0.018433 0.004517 0.999817 0.571429 0.428571
0.000000 0.142857 -0.019244 -0.054140 -0.026032 0.998169 0.500000 0.428571
0.000000 0.000000 -0.020518 -0.029603 0.014374 0.999451 0.500000 0.500000
-0.142857 0.000000 -0.022779 0.010193 0.036988 0.999237 0.571429 0.500000
-0.142857 -0.142857 -0.013768 0.024232 0.081301 0.996368 0.571429 0.571429
0.000000 -0.142857 -0.015378 0.005097 0.055300 0.998444 0.500000 0.571429
0.000000 -0.285714 -0.003226 0.051363 0.066836 0.996429 0.500000 0.642857
-0.142857 -0.285714 0.004561 0.024628 0.087252 0.995849 0.571429 0.642857
-0.142857 -0.428571 0.016715 0.010987 0.004273 0.999908 0.571429 0.714286
0.000000 -0.428571 0.006064 0.070864 0.018952 0.997284 0.500000 0.714286
0.000000 -0.571429 0.002617 0.039094 -0.023865 0.998932 0.500000 0.785714
-0.142857 -0.571429 0.007202 -0.012482 -0.064577 0.997803 0.571429 0.785714
-0.285714 0.857143 -0.009087 -0.020936 0.033998 0.999176 0.642857 0.071429
-0.285714 1.000000 -0.016711 -0.014618 0.055269 0.998352 0.642857 0.000000
-0.428571 1.000000 -0.012954 0.060060 0.046937 0.997070 0.714286 0.000000
-0.428571 0.857143 -0.006494 0.057833 0.025300 0.997986 0.714286 0.071429
-0.428571 0.714286 -0.006370 0.052614 -0.039674 0.997803 0.714286 0.142857
-0.285714 0.714286 -0.007445 -0.034150 -0.029908 0.998962 0.642857 0.142857
-0.285714 0.571429 -0.017764 -0.044618 -0.075869 0.996094 0.642857 0.214286
-0.428571 0.571429 -0.018921 0.046022 -0.082949 0.995483 0.714286 0.214286
-0.428571 0.428571 -0.030720 0.038423 -0.040132 0.998444 0.714286 0.285714
-0.285714 0.428571 -0.028723 -0.040620 -0.043672 0.998199 0.642857 0.285714
-0.285714 0.285714 -0.029000 -0.015778 0.012238 0.999786 0.642857 0.357143
-0.428571 0.285714 -0.028341 0.029450 0.024537 0.999237 0.714286 0.357143
-0.428571 0.142857 -0.019214 0.018952 0.046876 0.998718 0.714286 0.428571
-0.285714 0.142857 -0.023353 0.016358 0.037599 0.999146 0.642857 0.428571
-0.285714 0.000000 -0.016542 0.034272 0.050478 0.998108 0.642857 0.500000
-0.428571 0.000000 -0.010767 0.004212 0.044435 0.998993 0.714286 0.500000
-0.428571 -0.142857 -0.004426 -0.023316 0.034944 0.999115 0.714286 0.571429
-0.285714 -0.142857 -0.007497 0.021363 0.069155 0.997345 0.642857 0.571429
-0.285714 -0.285714 0.004854 -0.020692 0.058107 0.998077 0.642857 0.642857
-0.428571 -0.285714 -0.001616 -0.061007 0.012696 0.998047 0.714286 0.642857
-0.428571 -0.428571 -0.003919 -0.077853 -0.028077 0.996551 0.714286 0.714286
-0.285714 -0.428571 0.010311 -0.058901 -0.018220 0.998077 0.642857 0.714286
-0.285714 -0.571429 -0.001327 -0.066378 -0.072909 0.995117 0.642857 0.785714
-0.428571 -0.571429 -0.012920 -0.056429 -0.049409 0.997162 0.714286 0.785714
-0.571429 0.857143 0.007532 0.074404 0.022706 0.996948 0.785714 0.071429
-0.571429 1.000000 0.001180 0.074587 0.042909 0.996277 0.785714 0.000000
-0.714286 1.000000 0.008937 -0.034150 0.033601 0.998840 0.857143 0.000000
-0.714286 0.857143 0.014398 -0.036805 0.019807 0.999115 0.857143 0.071429
-0.714286 0.714286 0.015326 -0.027711 -0.021485 0.999359 0.857143 0.142857
-0.571429 0.714286 0.007723 0.078677 -0.037782 0.996155 0.785714 0.142857
-0.571429 0.571429 -0.004406 0.087405 -0.081881 0.992798 0.785714 0.214286
-0.714286 0.571429 0.007186 0.004456 -0.057344 0.998321 0.857143 0.214286
-0.714286 0.428571 -0.004017 0.032167 -0.054933 0.997955 0.857143 0.285714
-0.571429 0.428571 -0.017567 0.083193 -0.053041 0.995117 0.785714 0.285714
-0.571429 0.285714 -0.020470 0.053743 -0.001282 0.998535 0.785714 0.357143
-0.714286 0.285714 -0.012280 0.033052 -0.028626 0.999023 0.857143 0.357143
-0.714286 0.142857 -0.016483 0.028871 0.007111 0.999542 0.857143 0.428571
-0.571429 0.142857 -0.017842 0.014649 0.023133 0.999603 0.785714 0.428571
-0.571429 0.000000 -0.014410 -0.015015 0.023804 0.999573 0.785714 0.500000
-0.714286 0.000000 -0.015508 0.041169 0.022492 0.998871 0.857143 0.500000
-0.714286 -0.142857 -0.014886 0.046632 -0.012329 0.998810 0.857143 0.571429
-0.571429 -0.142857 -0.012420 -0.038606 0.004425 0.999237 0.785714 0.571429
-0.571429 -0.285714 -0.014119 -0.058473 -0.014527 0.998169 0.785714 0.642857
-0.714286 -0.285714 -0.020151 0.024873 -0.039369 0.998901 0.857143 0.642857
-0.714286 -0.428571 -0.023378 0.007050 -0.000793 0.999969 0.857143 0.714286
-0.571429 -0.428571 -0.016743 -0.053407 -0.012757 0.998474 0.785714 0.714286
-0.571429 -0.571429 -0.017531 -0.015473 -0.005493 0.999847 0.785714 0.785714
-0.714286 -0.571429 -0.016645 0.023652 0.037080 0.999023 0.857143 0.785714
-0.857143 0.857143 -0.004486 -0.167852 0.011811 0.985717 0.928571 0.071429
-0.857143 1.000000 -0.006440 -0.158086 0.015351 0.987274 0.928571 0.000000
-0.964286 0.964286 -0.027364 -0.206519 0.002380 0.978423 0.982143 0.017857
-1.000000 0.857143 -0.036246 -0.211707 0.007111 0.977294 1.000000 0.071429
-1.000000 0.714286 -0.034471 -0.197668 0.024934 0.979919 1.000000 0.142857
-0.857143 0.714286 -0.003073 -0.155919 0.007752 0.987732 0.928571 0.142857
-0.857143 0.571429 -0.002739 -0.103946 -0.001190 0.994568 0.928571 0.214286
-1.000000 0.571429 -0.023422 -0.139866 0.034486 0.989563 1.000000 0.214286
-1.000000 0.428571 -0.012807 -0.066866 0.005493 0.997742 1.000000 0.285714
-0.857143 0.428571 -0.004823 -0.042085 -0.021210 0.998871 0.928571 0.285714
-0.857143 0.285714 -0.010664 0.000580 -0.018952 0.999817 0.928571 0.357143
-1.000000 0.285714 -0.012336 -0.010224 -0.002899 0.999939 1.000000 0.357143
-1.000000 0.142857 -0.006909 0.052065 0.068636 0.996277 1.000000 0.428571
-0.857143 0.142857 -0.012382 0.046266 0.038850 0.998169 0.928571 0.428571
-0.857143 0.000000 -0.002096 0.110843 0.067843 0.991516 0.928571 0.500000
-1.000000 0.000000 0.018570 0.134129 0.102512 0.985626 1.000000 0.500000
-1.000000 -0.142857 0.035487 0.179907 -0.014191 0.983551 1.000000 0.571429
-0.857143 -0.142857 0.004770 0.147282 -0.015717 0.988952 0.928571 0.571429
-0.857143 -0.285714 -0.007207 0.116703 -0.087100 0.989319 0.928571 0.642857
-1.000000 -0.285714 0.015225 0.147160 -0.117679 0.982086 1.000000 0.642857
-1.000000 -0.428571 -0.009218 0.085238 -0.042634 0.995422 1.000000 0.714286
-0.857143 -0.428571 -0.019041 0.065706 -0.021973 0.997589 0.928571 0.714286
-0.857143 -0.571429 -0.011748 0.052187 0.061434 0.996734 0.928571 0.785714
-1.000000 -0.571429 -0.004845 0.061678 0.068361 0.995727 1.000000 0.785714
4 0 1 2 3
4 0 3 4 5
4 0 5 6 7
4 0 7 8 1
4 9 10 11 12
4 9 12 13 14
4 9 14 15 16
4 9 16 17 10
4 18 14 13 19
4 18 19 20 21
4 18 21 22 23
4 18 23 15 14
4 24 21 20 25
4 24 25 26 27
4 24 27 28 29
4 24 29 22 21
4 30 27 26 31
4 30 31 32 33
4 30 33 34 35
4 30 35 28 27
4 36 33 32 37
4 36 37 38 39
4 36 39 40 41
4 36 41 34 33
4 42 39 38 43
4 42 43 2 1
4 42 1 8 44
4 42 44 40 39
4 45 46 47 48
4 45 48 49 50
4 45 50 51 52
4 45 52 53 46
4 54 55 53 52
4 54 52 51 56
4 54 56 57 58
4 54 58 59 55
4 60 61 59 58
4 60 58 57 62
4 60 62 63 64
4 60 64 65 61
4 66 67 65 64
4 66 64 63 68
4 66 68 69 70
4 66 70 71 67
4 72 73 71 70
4 72 70 69 74
4 72 74 75 76
4 72 76 77 73
4 78 79 77 76
4 78 76 75 80
4 78 80 13 12
4 78 12 11 79
4 81 50 49 82
4 81 82 83 84
4 81 84 85 86
4 81 86 51 50
4 87 56 51 86
4 87 86 85 88
4 87 88 89 90
4 87 90 57 56
4 91 62 57 90
4 91 90 89 92
4 91 92 93 94
4 91 94 63 62
4 95 68 63 94
4 95 94 93 96
4 95 96 97 98
4 95 98 69 68
4 99 74 69 98
4 99 98 97 100
4 99 100 101 102
4 99 102 75 74
4 103 80 75 102
4 103 102 101 104
4 103 104 20 19
4 103 19 13 80
4 105 84 83 106
4 105 106 107 108
4 105 108 109 110
4 105 110 85 84
4 111 88 85 110
4 111 110 109 112
4 111 112 113 114
4 111 114 89 88
4 115 92 89 114
4 115 114 113 116
4 115 116 117 118
4 115 118 93 92
4 119 96 93 118
4 119 118 117 120
4 119 120 121 122
4 119 122 97 96
4 123 100 97 122
4 123 122 121 124
4 123 124 125 126
4 123 126 101 100
4 127 104 101 126
4 127 126 125 128
4 127 128 26 25
4 127 25 20 104
4 129 108 107 130
4 129 130 131 132
4 129 132 133 134
4 129 134 109 108
4 135 112 109 134
4 135 134 133 136
4 135 136 137 138
4 135 138 113 112
4 139 116 113 138
4 139 138 137 140
4 139 140 141 142
4 139 142 117 116
4 143 120 117 142
4 143 142 141 144
4 143 144 145 146
4 143 146 121 120
4 147 124 121 146
4 147 146 145 148
4 147 148 149 150
4 147 150 125 124
4 151 128 125 150
4 151 150 149 152
4 151 152 32 31
4 151 31 26 128
4 153 132 131 154
4 153 154 155 156
4 153 156 157 158
4 153 158 133 132
4 159 136 133 158
4 159 158 157 160
4 159 160 161 162
4 159 162 137 136
4 163 140 137 162
4 163 162 161 164
4 163 164 165 166
4 163 166 141 140
4 167 144 141 166
4 167 166 165 168
4 167 168 169 170
4 167 170 145 144
4 171 148 145 170
4 171 170 169 172
4 171 172 173 174
4 171 174 149 148
4 175 152 149 174
4 175 174 173 176
4 175 176 38 37
4 175 37 32 152
4 177 156 155 178
4 177 178 179 180
4 177 180 181 182
4 177 182 157 156
4 183 160 157 182
4 183 182 181 184
4 183 184 185 186
4 183 186 161 160
4 187 164 161 186
4 187 186 185 188
4 187 188 189 190
4 187 190 165 164
4 191 168 165 190
4 191 190 189 192
4 191 192 193 194
4 191 194 169 168
4 195 172 169 194
4 195 194 193 196
4 195 196 197 198
4 195 198 173 172
4 199 176 173 198
4 199 198 197 200
4 199 200 2 43
4 199 43 38 176
4 201 180 179 202
4 201 202 203 204
4 201 204 205 206
4 201 206 181 180
4 207 184 181 206
4 207 206 205 208
4 207 208 209 210
4 207 210 185 184
4 211 188 185 210
4 211 210 209 212
4 211 212 213 214
4 211 214 189 188
4 215 192 189 214
4 215 214 213 216
4 215 216 217 218
4 215 218 193 192
4 219 196 193 218
4 219 218 217 220
4 219 220 221 222
4 219 222 197 196
4 223 200 197 222
4 223 222 221 224
4 223 224 4 3
4 223 3 2 200
