# Blender v2.63 (sub 0) OBJ File: 'ico_open.blend'
# www.blender.org
mtllib ico_open_000016.mtl
o Icosphere.012
v 0.000459 -1.064956 -0.010102
v 0.425782 -0.915610 0.298910
v -0.161996 -0.915610 0.489894
v 0.425782 -0.915610 -0.319113
v -0.525271 -0.915608 -0.010102
v -0.161996 -0.915610 -0.510097
vt 0.000000 0.000000
vt 1.000000 0.000000
vt 1.000000 1.000000
vn 0.102381 -0.943523 0.315090
vn -0.268034 -0.943523 0.194737
vn -0.268034 -0.943523 -0.194737
vn 0.102381 -0.943523 -0.315090
vn 0.331305 -0.943524 0.000000
usemtl Material
s off
f 1/1/1 2/2/1 3/3/1
f 1/1/2 3/2/2 5/3/2
f 1/1/3 5/2/3 6/3/3
f 1/1/4 6/2/4 4/3/4
f 2/1/5 1/2/5 4/3/5
o Icosphere.011
v -0.279622 -0.462699 -0.900619
v -0.691424 -0.541216 -0.549967
v -0.165690 -0.866134 -0.549965
v 0.259635 -0.541217 -0.858981
v -0.591020 -0.015479 -0.858987
v -0.003234 -0.015479 -1.049970
vt 0.000000 0.000000
vt 1.000000 0.000000
vt 1.000000 1.000000
vn -0.574602 -0.330388 -0.748784
vn -0.306569 -0.125629 -0.943522
vn -0.408946 -0.661698 -0.628425
vn -0.038530 -0.661699 -0.748779
vn 0.024747 -0.330386 -0.943521
usemtl Material
s off
f 7/4/6 8/5/6 11/6/6
f 7/4/7 11/5/7 12/6/7
f 8/5/8 7/6/8 9/4/8
f 9/4/9 7/5/9 10/6/9
f 10/4/10 7/5/10 12/6/10
o Icosphere.010
v -0.917455 -0.480638 0.003793
v -0.711218 -0.559159 0.503790
v -0.548759 -0.884074 0.003793
v -0.711218 -0.559159 -0.496204
v -0.974087 -0.033422 0.312805
v -0.974087 -0.033422 -0.305220
vt 0.000000 0.000000
vt 1.000000 0.000000
vt 1.000000 1.000000
vn -0.889697 -0.330385 0.315095
vn -0.992077 -0.125628 0.000000
vn -0.724042 -0.661695 0.194736
vn -0.724042 -0.661695 -0.194736
vn -0.889697 -0.330385 -0.315095
usemtl Material
s off
f 13/7/11 14/8/11 17/9/11
f 13/7/12 17/8/12 18/9/12
f 14/8/13 13/9/13 15/7/13
f 15/7/14 13/8/14 16/9/14
f 16/7/15 13/8/15 18/9/15
o Icosphere.009
v -0.297143 -0.491276 0.892409
v 0.242114 -0.569794 0.850771
v -0.183210 -0.894710 0.541755
v -0.708944 -0.569792 0.541756
v -0.020755 -0.044056 1.041759
v -0.608540 -0.044056 0.850776
vt 0.000000 0.000000
vt 1.000000 0.000000
vt 1.000000 1.000000
vn 0.024747 -0.330386 0.943521
vn -0.306569 -0.125629 0.943522
vn -0.038530 -0.661699 0.748779
vn -0.408946 -0.661698 0.628425
vn -0.574602 -0.330388 0.748783
usemtl Material
s off
f 19/10/16 20/11/16 23/12/16
f 19/10/17 23/11/17 24/12/17
f 20/11/18 19/12/18 21/10/18
f 21/10/19 19/11/19 22/12/19
f 22/10/20 19/11/20 24/12/20
o Icosphere.008
v 0.750410 -0.474469 0.552899
v 0.452126 -0.877904 0.336185
v 0.289672 -0.552987 0.836186
v 0.877451 -0.552986 0.027174
v 0.977861 -0.027250 0.336187
v 0.614588 -0.027250 0.836191
vt 0.000000 0.000000
vt 1.000000 0.000000
vt 1.000000 1.000000
vn 0.700224 -0.661699 0.268032
vn 0.904989 -0.330385 0.268031
vn 0.802609 -0.125627 0.583126
vn 0.471300 -0.661699 0.583122
vn 0.534576 -0.330387 0.777865
usemtl Material
s off
f 25/13/21 26/14/21 28/15/21
f 25/13/22 28/14/22 29/15/22
f 25/13/23 29/14/23 30/15/23
f 26/13/24 25/14/24 27/15/24
f 27/13/25 25/14/25 30/15/25
o Icosphere.007
v 0.772389 -0.474819 -0.570015
v 0.474104 -0.878254 -0.353301
v 0.899430 -0.553336 -0.044290
v 0.311651 -0.553337 -0.853301
v 0.999840 -0.027600 -0.353302
v 0.636567 -0.027600 -0.853306
vt 0.000000 0.000000
vt 1.000000 0.000000
vt 1.000000 1.000000
vn 0.534576 -0.330387 -0.777865
vn 0.802609 -0.125627 -0.583126
vn 0.700224 -0.661699 -0.268032
vn 0.471300 -0.661699 -0.583122
vn 0.904989 -0.330385 -0.268031
usemtl Material
s off
f 31/16/26 34/17/26 36/18/26
f 31/16/27 36/17/27 35/18/27
f 32/17/28 31/18/28 33/16/28
f 34/17/29 31/18/29 32/16/29
f 33/16/30 31/17/30 35/18/30
o Icosphere.006
v 0.316559 0.447220 0.885455
v 0.934597 0.447216 0.034805
v 0.991229 -0.000000 0.343818
v 0.627957 -0.000000 0.843822
v 0.728360 0.525736 0.534802
v 0.565901 0.850652 0.034805
v 0.202626 0.850654 0.534801
vt 0.000000 0.000000
vt 1.000000 0.000000
vt 1.000000 1.000000
vn 0.408946 0.661699 0.628425
vn 0.574602 0.330388 0.748784
vn 0.794656 0.187595 0.577348
vn 0.889697 0.330385 0.315095
vn 0.491119 0.794658 0.356821
vn 0.724042 0.661695 0.194736
usemtl Material
s off
f 37/19/31 41/20/31 43/21/31
f 41/20/32 37/21/32 40/19/32
f 40/19/33 39/20/33 41/21/33
f 39/19/34 38/20/34 41/21/34
f 43/19/35 41/20/35 42/21/35
f 41/19/36 38/20/36 42/21/36
o Icosphere.005
v 0.251280 0.461978 0.918238
v -0.748715 0.461978 0.593315
v -0.025108 0.014758 1.067589
v -0.612893 0.014758 0.876606
v -0.287977 0.540496 0.876601
v 0.137348 0.865412 0.567584
v -0.450430 0.865412 0.376601
vt 0.000000 0.000000
vt 1.000000 0.000000
vt 1.000000 1.000000
vn -0.471300 0.661699 0.583122
vn -0.534576 0.330387 0.777865
vn -0.303531 0.187597 0.934171
vn -0.024747 0.330386 0.943521
vn -0.187594 0.794658 0.577345
vn 0.038530 0.661699 0.748779
usemtl Material
s off
f 45/22/37 48/23/37 50/24/37
f 47/22/38 48/23/38 45/24/38
f 47/22/39 46/23/39 48/24/39
f 46/22/40 44/23/40 48/24/40
f 50/22/41 48/23/41 49/24/41
f 48/22/42 44/23/42 49/24/42
o Icosphere.004
v -0.798310 0.475767 0.540362
v -0.798310 0.475767 -0.511089
v -1.025761 0.028548 0.323649
v -1.025761 0.028548 -0.294376
v -0.925351 0.554284 0.014637
v -0.500025 0.879202 0.323648
v -0.500025 0.879202 -0.294375
vt 0.000000 0.000000
vt 1.000000 0.000000
vt 1.000000 1.000000
vn -0.700224 0.661699 -0.268032
vn -0.904989 0.330385 -0.268032
vn -0.982246 0.187599 0.000000
vn -0.904989 0.330385 0.268032
vn -0.607060 0.794656 0.000000
vn -0.700224 0.661699 0.268032
usemtl Material
s off
f 52/25/43 55/26/43 57/27/43
f 54/25/44 55/26/44 52/27/44
f 54/25/45 53/26/45 55/27/45
f 53/25/46 51/26/46 55/27/46
f 57/25/47 55/26/47 56/27/47
f 55/25/48 51/26/48 56/27/48
o Icosphere.003
v -0.708391 0.473211 -0.550776
v 0.291605 0.473211 -0.875700
v -0.572569 0.025991 -0.834068
v 0.015217 0.025991 -1.025051
v -0.247652 0.551729 -0.834063
v -0.410106 0.876645 -0.334063
v 0.177672 0.876646 -0.525046
vt 0.000000 0.000000
vt 1.000000 0.000000
vt 1.000000 1.000000
vn 0.038530 0.661699 -0.748779
vn -0.024747 0.330386 -0.943521
vn -0.303531 0.187597 -0.934171
vn -0.534576 0.330387 -0.777865
vn -0.187594 0.794658 -0.577345
vn -0.471300 0.661699 -0.583122
usemtl Material
s off
f 59/28/49 62/29/49 64/30/49
f 61/28/50 62/29/50 59/30/50
f 61/28/51 60/29/51 62/30/51
f 60/28/52 58/29/52 62/30/52
f 64/28/53 62/29/53 63/30/53
f 62/28/54 58/29/54 63/30/54
o Icosphere.002
v 0.351639 0.473584 -0.858786
v 0.969677 0.473580 -0.008137
v 1.026309 0.026364 -0.317149
v 0.663037 0.026364 -0.817154
v 0.763441 0.552100 -0.508134
v 0.600981 0.877016 -0.008137
v 0.237707 0.877019 -0.508132
vt 0.000000 0.000000
vt 1.000000 0.000000
vt 1.000000 1.000000
vn 0.724042 0.661695 -0.194736
vn 0.889697 0.330385 -0.315095
vn 0.794656 0.187595 -0.577348
vn 0.574602 0.330388 -0.748784
vn 0.491119 0.794658 -0.356821
vn 0.408946 0.661699 -0.628425
usemtl Material
s off
f 66/31/55 69/32/55 70/33/55
f 67/31/56 69/32/56 66/33/56
f 67/31/57 68/32/57 69/33/57
f 68/31/58 65/32/58 69/33/58
f 70/31/59 69/32/59 71/33/59
f 69/31/60 65/32/60 71/33/60
o Icosphere.001
v 0.024432 1.032773 -0.017422
v 0.550162 0.883425 -0.017422
v 0.186887 0.883428 0.482573
v -0.400891 0.883428 0.291589
v -0.400891 0.883428 -0.326434
v 0.186887 0.883428 -0.517418
vt 1.000000 0.000000
vt 1.000000 1.000000
vt 0.000000 0.000000
vn 0.268034 0.943523 0.194737
vn -0.102381 0.943523 0.315090
vn -0.331304 0.943524 0.000000
vn -0.102381 0.943523 -0.315090
vn 0.268034 0.943523 -0.194737
usemtl Material
s off
f 73/34/61 72/35/61 74/36/61
f 74/34/62 72/35/62 75/36/62
f 75/34/63 72/35/63 76/36/63
f 76/34/64 72/35/64 77/36/64
f 77/34/65 72/35/65 73/36/65
o Icosphere
v 0.276388 0.447220 0.850649
v -0.723607 0.447220 0.525725
v -0.723607 0.447220 -0.525725
v 0.276388 0.447220 -0.850649
v 0.894426 0.447216 0.000000
v 0.425323 -0.850654 0.309011
v 0.262869 -0.525738 0.809012
v -0.162456 -0.850654 0.499995
v 0.425323 -0.850654 -0.309011
v 0.850648 -0.525736 0.000000
v -0.688189 -0.525736 0.499997
v -0.525730 -0.850652 0.000000
v -0.688189 -0.525736 -0.499997
v -0.162456 -0.850654 -0.499995
v 0.262869 -0.525738 -0.809012
v 0.951058 0.000000 -0.309013
v 0.951058 0.000000 0.309013
v 0.587786 0.000000 0.809017
v 0.000000 0.000000 1.000000
v -0.587786 0.000000 0.809017
v -0.951058 0.000000 0.309013
v -0.951058 0.000000 -0.309013
v -0.587786 0.000000 -0.809017
v 0.000000 0.000000 -1.000000
v 0.587786 0.000000 -0.809017
vt 0.000000 0.000000
vt 1.000000 0.000000
vt 1.000000 1.000000
vn 0.187594 -0.794658 0.577345
vn 0.607060 -0.794656 0.000000
vn -0.491119 -0.794657 0.356821
vn -0.491119 -0.794657 -0.356821
vn 0.187594 -0.794658 -0.577345
vn 0.992077 0.125628 -0.000000
vn 0.982246 -0.187599 0.000000
vn 0.306569 0.125629 0.943522
vn 0.303531 -0.187597 0.934171
vn -0.802609 0.125627 0.583126
vn -0.794656 -0.187595 0.577348
vn -0.802609 0.125627 -0.583126
vn -0.794656 -0.187595 -0.577348
vn 0.306569 0.125629 -0.943522
vn 0.303531 -0.187597 -0.934171
usemtl Material
s off
f 85/37/66 83/38/66 84/39/66
f 87/37/67 83/38/67 86/39/67
f 89/37/68 85/38/68 88/39/68
f 91/37/69 89/38/69 90/39/69
f 86/37/70 91/38/70 92/39/70
f 94/37/71 93/38/71 82/39/71
f 94/37/72 87/38/72 93/39/72
f 95/38/73 78/39/73 96/37/73
f 96/37/74 84/38/74 95/39/74
f 98/37/75 97/38/75 79/39/75
f 98/37/76 88/38/76 97/39/76
f 100/37/77 99/38/77 80/39/77
f 100/37/78 90/38/78 99/39/78
f 102/37/79 101/38/79 81/39/79
f 102/37/80 92/38/80 101/39/80
