# Blender v2.63 (sub 0) OBJ File: 'ico_open.blend'
# www.blender.org
mtllib ico_open_000008.mtl
o Icosphere.012
v 0.001205 -1.170459 -0.026512
v 0.426528 -1.021113 0.282499
v -0.161251 -1.021114 0.473483
v 0.426528 -1.021113 -0.335524
v -0.524525 -1.021111 -0.026512
v -0.161251 -1.021114 -0.526508
vt 0.000000 0.000000
vt 1.000000 0.000000
vt 1.000000 1.000000
vn 0.102381 -0.943523 0.315090
vn -0.268034 -0.943523 0.194736
vn -0.268034 -0.943523 -0.194736
vn 0.102381 -0.943524 -0.315090
vn 0.331304 -0.943524 0.000000
usemtl Material
s off
f 1/1/1 2/2/1 3/3/1
f 1/1/2 3/2/2 5/3/2
f 1/1/3 5/2/3 6/3/3
f 1/1/4 6/2/4 4/3/4
f 2/1/5 1/2/5 4/3/5
o Icosphere.011
v -0.284876 -0.487846 -0.981789
v -0.696678 -0.566363 -0.631136
v -0.170944 -0.891281 -0.631135
v 0.254381 -0.566364 -0.940151
v -0.596274 -0.040626 -0.940156
v -0.008488 -0.040626 -1.131139
vt 0.000000 0.000000
vt 1.000000 0.000000
vt 1.000000 1.000000
vn -0.574602 -0.330388 -0.748783
vn -0.306569 -0.125629 -0.943522
vn -0.408946 -0.661698 -0.628425
vn -0.038530 -0.661699 -0.748779
vn 0.024747 -0.330386 -0.943521
usemtl Material
s off
f 7/4/6 8/5/6 11/6/6
f 7/4/7 11/5/7 12/6/7
f 8/5/8 7/6/8 9/4/8
f 9/4/9 7/5/9 10/6/9
f 10/4/10 7/5/10 12/6/10
o Icosphere.010
v -0.954866 -0.534932 0.009955
v -0.748629 -0.613453 0.509951
v -0.586169 -0.938368 0.009955
v -0.748629 -0.613453 -0.490042
v -1.011497 -0.087717 0.318967
v -1.011497 -0.087717 -0.299058
vt 0.000000 0.000000
vt 1.000000 0.000000
vt 1.000000 1.000000
vn -0.889697 -0.330385 0.315095
vn -0.992077 -0.125628 0.000000
vn -0.724042 -0.661695 0.194736
vn -0.724042 -0.661695 -0.194736
vn -0.889697 -0.330385 -0.315095
usemtl Material
s off
f 13/7/11 14/8/11 17/9/11
f 13/7/12 17/8/12 18/9/12
f 14/8/13 13/9/13 15/7/13
f 15/7/14 13/8/14 16/9/14
f 16/7/15 13/8/15 18/9/15
o Icosphere.009
v -0.330860 -0.562841 0.960244
v 0.208397 -0.641359 0.918606
v -0.216927 -0.966276 0.609590
v -0.742661 -0.641357 0.609591
v -0.054472 -0.115621 1.109594
v -0.642257 -0.115621 0.918611
vt 0.000000 0.000000
vt 1.000000 0.000000
vt 1.000000 1.000000
vn 0.024747 -0.330386 0.943521
vn -0.306569 -0.125629 0.943522
vn -0.038530 -0.661699 0.748779
vn -0.408946 -0.661698 0.628425
vn -0.574602 -0.330388 0.748783
usemtl Material
s off
f 19/10/16 20/11/16 23/12/16
f 19/10/17 23/11/17 24/12/17
f 20/11/18 19/12/18 21/10/18
f 21/10/19 19/11/19 22/12/19
f 22/10/20 19/11/20 24/12/20
o Icosphere.008
v 0.793952 -0.518737 0.597044
v 0.495667 -0.922172 0.380330
v 0.333213 -0.597255 0.880330
v 0.920992 -0.597253 0.071319
v 1.021402 -0.071517 0.380331
v 0.658130 -0.071517 0.880335
vt 0.000000 0.000000
vt 1.000000 0.000000
vt 1.000000 1.000000
vn 0.700224 -0.661699 0.268032
vn 0.904989 -0.330385 0.268032
vn 0.802609 -0.125627 0.583126
vn 0.471300 -0.661699 0.583122
vn 0.534576 -0.330387 0.777865
usemtl Material
s off
f 25/13/21 26/14/21 28/15/21
f 25/13/22 28/14/22 29/15/22
f 25/13/23 29/14/23 30/15/23
f 26/13/24 25/14/24 27/15/24
f 27/13/25 25/14/25 30/15/25
o Icosphere.007
v 0.851629 -0.519655 -0.641959
v 0.553344 -0.923090 -0.425246
v 0.978670 -0.598172 -0.116234
v 0.390890 -0.598173 -0.925246
v 1.079080 -0.072436 -0.425247
v 0.715807 -0.072436 -0.925251
vt 0.000000 0.000000
vt 1.000000 0.000000
vt 1.000000 1.000000
vn 0.534576 -0.330386 -0.777865
vn 0.802609 -0.125627 -0.583126
vn 0.700224 -0.661699 -0.268032
vn 0.471300 -0.661699 -0.583122
vn 0.904989 -0.330385 -0.268031
usemtl Material
s off
f 31/16/26 34/17/26 36/18/26
f 31/16/27 36/17/27 35/18/27
f 32/17/28 31/18/28 33/16/28
f 34/17/29 31/18/29 32/16/29
f 33/16/30 31/17/30 35/18/30
o Icosphere.006
v 0.381814 0.447220 0.941995
v 0.999852 0.447216 0.091345
v 1.056484 -0.000000 0.400358
v 0.693212 -0.000000 0.900362
v 0.793615 0.525736 0.591342
v 0.631156 0.850652 0.091345
v 0.267882 0.850654 0.591341
vt 0.000000 0.000000
vt 1.000000 0.000000
vt 1.000000 1.000000
vn 0.408946 0.661699 0.628425
vn 0.574602 0.330388 0.748783
vn 0.794656 0.187595 0.577348
vn 0.889697 0.330385 0.315095
vn 0.491119 0.794658 0.356821
vn 0.724042 0.661695 0.194736
usemtl Material
s off
f 37/19/31 41/20/31 43/21/31
f 41/20/32 37/21/32 40/19/32
f 40/19/33 39/20/33 41/21/33
f 39/19/34 38/20/34 41/21/34
f 43/19/35 41/20/35 42/21/35
f 41/19/36 38/20/36 42/21/36
o Icosphere.005
v 0.210492 0.485953 1.028017
v -0.789503 0.485953 0.703093
v -0.065896 0.038733 1.177367
v -0.653681 0.038733 0.986384
v -0.328765 0.564471 0.986379
v 0.096560 0.889388 0.677363
v -0.491218 0.889388 0.486379
vt 0.000000 0.000000
vt 1.000000 0.000000
vt 1.000000 1.000000
vn -0.471300 0.661699 0.583122
vn -0.534576 0.330387 0.777865
vn -0.303531 0.187597 0.934171
vn -0.024747 0.330386 0.943521
vn -0.187594 0.794658 0.577345
vn 0.038530 0.661699 0.748779
usemtl Material
s off
f 45/22/37 48/23/37 50/24/37
f 47/22/38 48/23/38 45/24/38
f 47/22/39 46/23/39 48/24/39
f 46/22/40 44/23/40 48/24/40
f 50/22/41 48/23/41 49/24/41
f 48/22/42 44/23/42 49/24/42
o Icosphere.004
v -0.919636 0.522143 0.564140
v -0.919636 0.522143 -0.487310
v -1.147086 0.074924 0.347428
v -1.147086 0.074924 -0.270598
v -1.046676 0.600660 0.038415
v -0.621351 0.925578 0.347426
v -0.621351 0.925578 -0.270596
vt 0.000000 0.000000
vt 1.000000 0.000000
vt 1.000000 1.000000
vn -0.700224 0.661699 -0.268032
vn -0.904989 0.330385 -0.268032
vn -0.982246 0.187599 0.000000
vn -0.904989 0.330385 0.268032
vn -0.607060 0.794656 0.000000
vn -0.700224 0.661699 0.268032
usemtl Material
s off
f 52/25/43 55/26/43 57/27/43
f 54/25/44 55/26/44 52/27/44
f 54/25/45 53/26/45 55/27/45
f 53/25/46 51/26/46 55/27/46
f 57/25/47 55/26/47 56/27/47
f 55/25/48 51/26/48 56/27/48
o Icosphere.003
v -0.683670 0.515434 -0.591473
v 0.316325 0.515434 -0.916397
v -0.547848 0.068215 -0.874764
v 0.039937 0.068215 -1.065747
v -0.222932 0.593952 -0.874759
v -0.385385 0.918869 -0.374759
v 0.202393 0.918869 -0.565743
vt 0.000000 0.000000
vt 1.000000 0.000000
vt 1.000000 1.000000
vn 0.038530 0.661699 -0.748779
vn -0.024747 0.330386 -0.943521
vn -0.303531 0.187597 -0.934171
vn -0.534576 0.330387 -0.777865
vn -0.187594 0.794658 -0.577345
vn -0.471300 0.661699 -0.583122
usemtl Material
s off
f 59/28/49 62/29/49 64/30/49
f 61/28/50 62/29/50 59/30/50
f 61/28/51 60/29/51 62/30/51
f 60/28/52 58/29/52 62/30/52
f 64/28/53 62/29/53 63/30/53
f 62/28/54 58/29/54 63/30/54
o Icosphere.002
v 0.473855 0.516413 -0.872005
v 1.091894 0.516409 -0.021356
v 1.148525 0.069193 -0.330368
v 0.785253 0.069193 -0.830372
v 0.885657 0.594930 -0.521353
v 0.723197 0.919845 -0.021356
v 0.359923 0.919848 -0.521351
vt 0.000000 0.000000
vt 1.000000 0.000000
vt 1.000000 1.000000
vn 0.724042 0.661695 -0.194736
vn 0.889697 0.330385 -0.315095
vn 0.794656 0.187595 -0.577348
vn 0.574602 0.330388 -0.748784
vn 0.491119 0.794658 -0.356821
vn 0.408946 0.661698 -0.628425
usemtl Material
s off
f 66/31/55 69/32/55 70/33/55
f 67/31/56 69/32/56 66/33/56
f 67/31/57 68/32/57 69/33/57
f 68/31/58 65/32/58 69/33/58
f 70/31/59 69/32/59 71/33/59
f 69/31/60 65/32/60 71/33/60
o Icosphere.001
v 0.064122 1.086013 -0.045726
v 0.589852 0.936665 -0.045726
v 0.226578 0.936668 0.454269
v -0.361201 0.936668 0.263285
v -0.361201 0.936668 -0.354737
v 0.226578 0.936668 -0.545721
vt 1.000000 0.000000
vt 1.000000 1.000000
vt 0.000000 0.000000
vn 0.268034 0.943523 0.194737
vn -0.102381 0.943523 0.315090
vn -0.331304 0.943524 0.000000
vn -0.102381 0.943523 -0.315090
vn 0.268034 0.943523 -0.194737
usemtl Material
s off
f 73/34/61 72/35/61 74/36/61
f 74/34/62 72/35/62 75/36/62
f 75/34/63 72/35/63 76/36/63
f 76/34/64 72/35/64 77/36/64
f 77/34/65 72/35/65 73/36/65
o Icosphere
v 0.276388 0.447220 0.850649
v -0.723607 0.447220 0.525725
v -0.723607 0.447220 -0.525725
v 0.276388 0.447220 -0.850649
v 0.894426 0.447216 0.000000
v 0.425323 -0.850654 0.309011
v 0.262869 -0.525738 0.809012
v -0.162456 -0.850654 0.499995
v 0.425323 -0.850654 -0.309011
v 0.850648 -0.525736 0.000000
v -0.688189 -0.525736 0.499997
v -0.525730 -0.850652 0.000000
v -0.688189 -0.525736 -0.499997
v -0.162456 -0.850654 -0.499995
v 0.262869 -0.525738 -0.809012
v 0.951058 0.000000 -0.309013
v 0.951058 0.000000 0.309013
v 0.587786 0.000000 0.809017
v 0.000000 0.000000 1.000000
v -0.587786 0.000000 0.809017
v -0.951058 0.000000 0.309013
v -0.951058 0.000000 -0.309013
v -0.587786 0.000000 -0.809017
v 0.000000 0.000000 -1.000000
v 0.587786 0.000000 -0.809017
vt 0.000000 0.000000
vt 1.000000 0.000000
vt 1.000000 1.000000
vn 0.187594 -0.794658 0.577345
vn 0.607060 -0.794656 0.000000
vn -0.491119 -0.794657 0.356821
vn -0.491119 -0.794657 -0.356821
vn 0.187594 -0.794658 -0.577345
vn 0.992077 0.125628 -0.000000
vn 0.982246 -0.187599 0.000000
vn 0.306569 0.125629 0.943522
vn 0.303531 -0.187597 0.934171
vn -0.802609 0.125627 0.583126
vn -0.794656 -0.187595 0.577348
vn -0.802609 0.125627 -0.583126
vn -0.794656 -0.187595 -0.577348
vn 0.306569 0.125629 -0.943522
vn 0.303531 -0.187597 -0.934171
usemtl Material
s off
f 85/37/66 83/38/66 84/39/66
f 87/37/67 83/38/67 86/39/67
f 89/37/68 85/38/68 88/39/68
f 91/37/69 89/38/69 90/39/69
f 86/37/70 91/38/70 92/39/70
f 94/37/71 93/38/71 82/39/71
f 94/37/72 87/38/72 93/39/72
f 95/38/73 78/39/73 96/37/73
f 96/37/74 84/38/74 95/39/74
f 98/37/75 97/38/75 79/39/75
f 98/37/76 88/38/76 97/39/76
f 100/37/77 99/38/77 80/39/77
f 100/37/78 90/38/78 99/39/78
f 102/37/79 101/38/79 81/39/79
f 102/37/80 92/38/80 101/39/80
