# Blender v2.63 (sub 0) OBJ File: 'ico_open.blend'
# www.blender.org
mtllib ico_open_000011.mtl
o Icosphere.012
v 0.001323 -1.187192 -0.029115
v 0.426646 -1.037846 0.279896
v -0.161132 -1.037846 0.470880
v 0.426646 -1.037846 -0.338126
v -0.524407 -1.037843 -0.029115
v -0.161132 -1.037846 -0.529110
vt 0.000000 0.000000
vt 1.000000 0.000000
vt 1.000000 1.000000
vn 0.102381 -0.943523 0.315090
vn -0.268034 -0.943523 0.194736
vn -0.268034 -0.943523 -0.194736
vn 0.102381 -0.943523 -0.315090
vn 0.331304 -0.943524 0.000000
usemtl Material
s off
f 1/1/1 2/2/1 3/3/1
f 1/1/2 3/2/2 5/3/2
f 1/1/3 5/2/3 6/3/3
f 1/1/4 6/2/4 4/3/4
f 2/1/5 1/2/5 4/3/5
o Icosphere.011
v -0.285710 -0.491835 -0.994662
v -0.697511 -0.570351 -0.644010
v -0.171777 -0.895269 -0.644008
v 0.253547 -0.570352 -0.953025
v -0.597107 -0.044615 -0.953030
v -0.009322 -0.044615 -1.144013
vt 0.000000 0.000000
vt 1.000000 0.000000
vt 1.000000 1.000000
vn -0.574602 -0.330388 -0.748784
vn -0.306569 -0.125629 -0.943522
vn -0.408946 -0.661698 -0.628425
vn -0.038530 -0.661699 -0.748779
vn 0.024747 -0.330386 -0.943521
usemtl Material
s off
f 7/4/6 8/5/6 11/6/6
f 7/4/7 11/5/7 12/6/7
f 8/5/8 7/6/8 9/4/8
f 9/4/9 7/5/9 10/6/9
f 10/4/10 7/5/10 12/6/10
o Icosphere.010
v -0.960799 -0.543543 0.010932
v -0.754562 -0.622064 0.510929
v -0.592103 -0.946979 0.010932
v -0.754562 -0.622064 -0.489065
v -1.017431 -0.096328 0.319944
v -1.017431 -0.096328 -0.298081
vt 0.000000 0.000000
vt 1.000000 0.000000
vt 1.000000 1.000000
vn -0.889697 -0.330385 0.315095
vn -0.992077 -0.125628 0.000000
vn -0.724042 -0.661695 0.194736
vn -0.724042 -0.661695 -0.194736
vn -0.889697 -0.330385 -0.315095
usemtl Material
s off
f 13/7/11 14/8/11 17/9/11
f 13/7/12 17/8/12 18/9/12
f 14/8/13 13/9/13 15/7/13
f 15/7/14 13/8/14 16/9/14
f 16/7/15 13/8/15 18/9/15
o Icosphere.009
v -0.336207 -0.574191 0.971003
v 0.203050 -0.652709 0.929365
v -0.222275 -0.977626 0.620349
v -0.748009 -0.652708 0.620350
v -0.059819 -0.126971 1.120353
v -0.647605 -0.126971 0.929370
vt 0.000000 0.000000
vt 1.000000 0.000000
vt 1.000000 1.000000
vn 0.024747 -0.330386 0.943521
vn -0.306569 -0.125629 0.943522
vn -0.038530 -0.661699 0.748779
vn -0.408946 -0.661698 0.628425
vn -0.574602 -0.330388 0.748784
usemtl Material
s off
f 19/10/16 20/11/16 23/12/16
f 19/10/17 23/11/17 24/12/17
f 20/11/18 19/12/18 21/10/18
f 21/10/19 19/11/19 22/12/19
f 22/10/20 19/11/20 24/12/20
o Icosphere.008
v 0.800858 -0.525758 0.604045
v 0.502573 -0.929192 0.387331
v 0.340119 -0.604276 0.887332
v 0.927898 -0.604274 0.078320
v 1.028308 -0.078538 0.387333
v 0.665036 -0.078538 0.887337
vt 0.000000 0.000000
vt 1.000000 0.000000
vt 1.000000 1.000000
vn 0.700224 -0.661699 0.268032
vn 0.904989 -0.330385 0.268031
vn 0.802609 -0.125627 0.583126
vn 0.471300 -0.661699 0.583122
vn 0.534576 -0.330387 0.777865
usemtl Material
s off
f 25/13/21 26/14/21 28/15/21
f 25/13/22 28/14/22 29/15/22
f 25/13/23 29/14/23 30/15/23
f 26/13/24 25/14/24 27/15/24
f 27/13/25 25/14/25 30/15/25
o Icosphere.007
v 0.864196 -0.526766 -0.653370
v 0.565912 -0.930201 -0.436656
v 0.991237 -0.605283 -0.127645
v 0.403458 -0.605285 -0.936656
v 1.091647 -0.079547 -0.436657
v 0.728375 -0.079547 -0.936661
vt 0.000000 0.000000
vt 1.000000 0.000000
vt 1.000000 1.000000
vn 0.534576 -0.330386 -0.777865
vn 0.802609 -0.125627 -0.583126
vn 0.700224 -0.661699 -0.268032
vn 0.471300 -0.661699 -0.583122
vn 0.904989 -0.330385 -0.268031
usemtl Material
s off
f 31/16/26 34/17/26 36/18/26
f 31/16/27 36/17/27 35/18/27
f 32/17/28 31/18/28 33/16/28
f 34/17/29 31/18/29 32/16/29
f 33/16/30 31/17/30 35/18/30
o Icosphere.006
v 0.392164 0.447220 0.950962
v 1.010202 0.447216 0.100313
v 1.066833 -0.000000 0.409325
v 0.703561 -0.000000 0.909330
v 0.803965 0.525736 0.600310
v 0.641505 0.850652 0.100313
v 0.278231 0.850654 0.600308
vt 0.000000 0.000000
vt 1.000000 0.000000
vt 1.000000 1.000000
vn 0.408946 0.661698 0.628425
vn 0.574602 0.330388 0.748784
vn 0.794656 0.187595 0.577348
vn 0.889697 0.330385 0.315095
vn 0.491119 0.794657 0.356821
vn 0.724042 0.661695 0.194736
usemtl Material
s off
f 37/19/31 41/20/31 43/21/31
f 41/20/32 37/21/32 40/19/32
f 40/19/33 39/20/33 41/21/33
f 39/19/34 38/20/34 41/21/34
f 43/19/35 41/20/35 42/21/35
f 41/19/36 38/20/36 42/21/36
o Icosphere.005
v 0.204023 0.489756 1.045428
v -0.795972 0.489755 0.720504
v -0.072365 0.042536 1.194778
v -0.660150 0.042536 1.003795
v -0.335234 0.568274 1.003790
v 0.090091 0.893190 0.694774
v -0.497688 0.893190 0.503790
vt 0.000000 0.000000
vt 1.000000 0.000000
vt 1.000000 1.000000
vn -0.471300 0.661699 0.583122
vn -0.534576 0.330386 0.777865
vn -0.303531 0.187597 0.934171
vn -0.024747 0.330386 0.943521
vn -0.187594 0.794658 0.577345
vn 0.038530 0.661699 0.748779
usemtl Material
s off
f 45/22/37 48/23/37 50/24/37
f 47/22/38 48/23/38 45/24/38
f 47/22/39 46/23/39 48/24/39
f 46/22/40 44/23/40 48/24/40
f 50/22/41 48/23/41 49/24/41
f 48/22/42 44/23/42 49/24/42
o Icosphere.004
v -0.938878 0.529499 0.567912
v -0.938878 0.529499 -0.483539
v -1.166328 0.082279 0.351199
v -1.166328 0.082279 -0.266826
v -1.065918 0.608015 0.042186
v -0.640593 0.932933 0.351198
v -0.640593 0.932933 -0.266825
vt 0.000000 0.000000
vt 1.000000 0.000000
vt 1.000000 1.000000
vn -0.700224 0.661699 -0.268032
vn -0.904989 0.330385 -0.268032
vn -0.982246 0.187599 0.000000
vn -0.904989 0.330385 0.268032
vn -0.607060 0.794656 0.000000
vn -0.700224 0.661699 0.268032
usemtl Material
s off
f 52/25/43 55/26/43 57/27/43
f 54/25/44 55/26/44 52/27/44
f 54/25/45 53/26/45 55/27/45
f 53/25/46 51/26/46 55/27/46
f 57/25/47 55/26/47 56/27/47
f 55/25/48 51/26/48 56/27/48
o Icosphere.003
v -0.679749 0.522131 -0.597927
v 0.320246 0.522131 -0.922851
v -0.543928 0.074911 -0.881219
v 0.043858 0.074911 -1.072202
v -0.219011 0.600649 -0.881213
v -0.381465 0.925565 -0.381213
v 0.206313 0.925566 -0.572197
vt 0.000000 0.000000
vt 1.000000 0.000000
vt 1.000000 1.000000
vn 0.038530 0.661699 -0.748779
vn -0.024747 0.330386 -0.943521
vn -0.303531 0.187597 -0.934171
vn -0.534576 0.330387 -0.777865
vn -0.187594 0.794658 -0.577345
vn -0.471300 0.661699 -0.583122
usemtl Material
s off
f 59/28/49 62/29/49 64/30/49
f 61/28/50 62/29/50 59/30/50
f 61/28/51 60/29/51 62/30/51
f 60/28/52 58/29/52 62/30/52
f 64/28/53 62/29/53 63/30/53
f 62/28/54 58/29/54 63/30/54
o Icosphere.002
v 0.493239 0.523206 -0.874101
v 1.111277 0.523202 -0.023452
v 1.167908 0.075986 -0.332465
v 0.804636 0.075986 -0.832469
v 0.905040 0.601722 -0.523449
v 0.742580 0.926638 -0.023452
v 0.379306 0.926641 -0.523447
vt 0.000000 0.000000
vt 1.000000 0.000000
vt 1.000000 1.000000
vn 0.724042 0.661695 -0.194736
vn 0.889697 0.330385 -0.315095
vn 0.794656 0.187595 -0.577348
vn 0.574602 0.330388 -0.748784
vn 0.491119 0.794658 -0.356821
vn 0.408946 0.661698 -0.628425
usemtl Material
s off
f 66/31/55 69/32/55 70/33/55
f 67/31/56 69/32/56 66/33/56
f 67/31/57 68/32/57 69/33/57
f 68/31/58 65/32/58 69/33/58
f 70/31/59 69/32/59 71/33/59
f 69/31/60 65/32/60 71/33/60
o Icosphere.001
v 0.070417 1.094457 -0.050215
v 0.596147 0.945109 -0.050215
v 0.232873 0.945112 0.449780
v -0.354906 0.945111 0.258796
v -0.354906 0.945111 -0.359226
v 0.232873 0.945112 -0.550210
vt 1.000000 0.000000
vt 1.000000 1.000000
vt 0.000000 0.000000
vn 0.268034 0.943523 0.194737
vn -0.102381 0.943523 0.315090
vn -0.331305 0.943524 0.000000
vn -0.102381 0.943523 -0.315090
vn 0.268034 0.943523 -0.194737
usemtl Material
s off
f 73/34/61 72/35/61 74/36/61
f 74/34/62 72/35/62 75/36/62
f 75/34/63 72/35/63 76/36/63
f 76/34/64 72/35/64 77/36/64
f 77/34/65 72/35/65 73/36/65
o Icosphere
v 0.276388 0.447220 0.850649
v -0.723607 0.447220 0.525725
v -0.723607 0.447220 -0.525725
v 0.276388 0.447220 -0.850649
v 0.894426 0.447216 0.000000
v 0.425323 -0.850654 0.309011
v 0.262869 -0.525738 0.809012
v -0.162456 -0.850654 0.499995
v 0.425323 -0.850654 -0.309011
v 0.850648 -0.525736 0.000000
v -0.688189 -0.525736 0.499997
v -0.525730 -0.850652 0.000000
v -0.688189 -0.525736 -0.499997
v -0.162456 -0.850654 -0.499995
v 0.262869 -0.525738 -0.809012
v 0.951058 0.000000 -0.309013
v 0.951058 0.000000 0.309013
v 0.587786 0.000000 0.809017
v 0.000000 0.000000 1.000000
v -0.587786 0.000000 0.809017
v -0.951058 0.000000 0.309013
v -0.951058 0.000000 -0.309013
v -0.587786 0.000000 -0.809017
v 0.000000 0.000000 -1.000000
v 0.587786 0.000000 -0.809017
vt 0.000000 0.000000
vt 1.000000 0.000000
vt 1.000000 1.000000
vn 0.187594 -0.794658 0.577345
vn 0.607060 -0.794656 0.000000
vn -0.491119 -0.794657 0.356821
vn -0.491119 -0.794657 -0.356821
vn 0.187594 -0.794658 -0.577345
vn 0.992077 0.125628 -0.000000
vn 0.982246 -0.187599 0.000000
vn 0.306569 0.125629 0.943522
vn 0.303531 -0.187597 0.934171
vn -0.802609 0.125627 0.583126
vn -0.794656 -0.187595 0.577348
vn -0.802609 0.125627 -0.583126
vn -0.794656 -0.187595 -0.577348
vn 0.306569 0.125629 -0.943522
vn 0.303531 -0.187597 -0.934171
usemtl Material
s off
f 85/37/66 83/38/66 84/39/66
f 87/37/67 83/38/67 86/39/67
f 89/37/68 85/38/68 88/39/68
f 91/37/69 89/38/69 90/39/69
f 86/37/70 91/38/70 92/39/70
f 94/37/71 93/38/71 82/39/71
f 94/37/72 87/38/72 93/39/72
f 95/38/73 78/39/73 96/37/73
f 96/37/74 84/38/74 95/39/74
f 98/37/75 97/38/75 79/39/75
f 98/37/76 88/38/76 97/39/76
f 100/37/77 99/38/77 80/39/77
f 100/37/78 90/38/78 99/39/78
f 102/37/79 101/38/79 81/39/79
f 102/37/80 92/38/80 101/39/80
