# Blender v2.63 (sub 0) OBJ File: 'Tanque.blend'
# www.blender.org
mtllib Tanque_000033.mtl
o Cube
v 3.290955 -1.627803 -4.435001
v 3.290955 -1.627802 4.435000
v -3.290955 -1.627802 4.434999
v -3.290953 -1.627803 -4.435003
v 3.290956 1.627802 -4.434999
v 3.290953 1.627802 4.435003
v -3.290956 1.627802 4.434999
v -3.290954 1.627802 -4.435001
v 2.312687 1.575429 -3.116655
v 2.312687 1.575429 3.116655
v -2.312688 1.575429 3.116654
v -2.312686 1.575429 -3.116656
v 2.312689 3.863275 -3.116654
v 2.312686 3.863275 3.116657
v -2.312688 3.863275 3.116654
v -2.312687 3.863275 -3.116655
v -0.000000 0.330664 2.957355
v -0.000000 0.330664 6.156617
v 0.165332 0.286363 2.957356
v 0.165332 0.286363 6.156617
v 0.286363 0.165332 2.957355
v 0.286363 0.165332 6.156617
v 0.330664 0.000000 2.957356
v 0.330664 0.000001 6.156617
v 0.286363 -0.165331 2.957356
v 0.286363 -0.165331 6.156617
v 0.165332 -0.286363 2.957355
v 0.165332 -0.286363 6.156617
v 0.000000 -0.330663 2.957356
v 0.000000 -0.330663 6.156617
v -0.165332 -0.286363 2.957356
v -0.165332 -0.286363 6.156617
v -0.286363 -0.165331 2.957356
v -0.286363 -0.165331 6.156617
v -0.330664 -0.000000 2.957356
v -0.330664 0.000000 6.156617
v -0.286363 0.165332 2.957356
v -0.286363 0.165332 6.156617
v -0.165332 0.286363 2.957356
v -0.165332 0.286363 6.156617
v -0.000000 1.006936 6.140846
v -0.000000 0.006936 8.140845
v 0.195090 0.987722 6.140846
v 0.382683 0.930816 6.140846
v 0.555570 0.838406 6.140846
v 0.707107 0.714043 6.140846
v 0.831470 0.562507 6.140846
v 0.923880 0.389620 6.140846
v 0.980785 0.202027 6.140846
v 1.000000 0.006936 6.140846
v 0.980785 -0.188154 6.140846
v 0.923880 -0.375746 6.140846
v 0.831470 -0.548634 6.140846
v 0.707107 -0.700170 6.140846
v 0.555570 -0.824533 6.140846
v 0.382683 -0.916943 6.140846
v 0.195090 -0.973849 6.140846
v -0.000000 -0.993064 6.140846
v -0.195091 -0.973849 6.140846
v -0.382684 -0.916943 6.140846
v -0.555571 -0.824533 6.140846
v -0.707107 -0.700170 6.140846
v -0.831470 -0.548633 6.140846
v -0.923880 -0.375746 6.140846
v -0.980785 -0.188153 6.140846
v -1.000000 0.006937 6.140846
v -0.980785 0.202028 6.140846
v -0.923879 0.389621 6.140846
v -0.831469 0.562508 6.140846
v -0.707106 0.714044 6.140846
v -0.555569 0.838407 6.140846
v -0.382682 0.930817 6.140846
v -0.195089 0.987722 6.140846
vt 0.000000 0.000000
vt 1.000000 0.000000
vt 1.000000 1.000000
vt 0.000000 1.000000
vt 0.500000 1.000000
vt 0.597545 0.990393
vt 0.402456 0.990393
vt 0.308659 0.961940
vt 0.691342 0.961940
vt 0.222215 0.915735
vt 0.777785 0.915735
vt 0.146447 0.853554
vt 0.853553 0.853553
vt 0.084266 0.777786
vt 0.915735 0.777785
vt 0.038060 0.691342
vt 0.961940 0.691342
vt 0.009607 0.597546
vt 0.990393 0.597545
vt 0.000000 0.500000
vt 1.000000 0.500000
vt 0.009607 0.402455
vt 0.990393 0.402455
vt 0.038060 0.308659
vt 0.961940 0.308658
vt 0.084265 0.222215
vt 0.915735 0.222215
vt 0.146446 0.146447
vt 0.853553 0.146447
vt 0.222215 0.084265
vt 0.777785 0.084265
vt 0.308658 0.038060
vt 0.691342 0.038060
vt 0.402455 0.009607
vt 0.597545 0.009607
vt 0.500000 0.000000
vn -0.000000 -1.000000 0.000000
vn 0.000000 1.000000 -0.000000
vn 1.000000 0.000000 0.000000
vn -0.000000 -0.000000 1.000000
vn -1.000000 -0.000000 -0.000000
vn 0.000000 0.000001 -1.000000
vn 0.258819 0.965926 -0.000000
vn 0.707105 0.707108 -0.000000
vn 0.965926 0.258819 -0.000000
vn 0.965926 -0.258819 0.000000
vn 0.707107 -0.707107 0.000000
vn 0.258819 -0.965926 0.000000
vn -0.258819 -0.965926 0.000000
vn -0.707107 -0.707107 0.000000
vn -0.965926 -0.258820 0.000000
vn -0.965926 0.258819 -0.000000
vn -0.707107 0.707106 -0.000000
vn -0.258819 0.965926 -0.000000
vn -0.259886 0.856738 0.445489
vn 0.087752 0.890977 0.445488
vn -0.087753 0.890977 0.445488
vn 0.259888 0.856737 0.445489
vn -0.422034 0.789574 0.445488
vn -0.567964 0.692067 0.445489
vn -0.692066 0.567965 0.445489
vn -0.789572 0.422037 0.445488
vn -0.856737 0.259889 0.445489
vn -0.890976 0.087755 0.445488
vn -0.890977 -0.087753 0.445489
vn -0.856737 -0.259887 0.445489
vn -0.789573 -0.422036 0.445488
vn -0.692067 -0.567964 0.445489
vn -0.567966 -0.692066 0.445488
vn -0.422036 -0.789573 0.445489
vn -0.259887 -0.856737 0.445489
vn -0.087754 -0.890976 0.445488
vn 0.087753 -0.890977 0.445488
vn 0.259888 -0.856737 0.445489
vn 0.422036 -0.789573 0.445488
vn 0.567965 -0.692066 0.445489
vn 0.692066 -0.567966 0.445489
vn 0.789574 -0.422034 0.445488
vn 0.856737 -0.259889 0.445489
vn 0.890977 -0.087752 0.445488
vn 0.890977 0.087753 0.445488
vn 0.856737 0.259887 0.445489
vn 0.789573 0.422037 0.445488
vn 0.692066 0.567966 0.445488
vn 0.567966 0.692066 0.445488
vn 0.422036 0.789573 0.445488
vn 0.000000 0.000000 -1.000000
vn -0.000000 0.000003 -1.000000
vn -0.000000 -0.000003 -1.000000
vn -0.000000 0.000002 -1.000000
vn -0.000000 -0.000002 -1.000000
vn 0.000000 0.000008 -1.000000
vn 0.000001 -0.000004 -1.000000
vn 0.000001 -0.000012 -1.000000
usemtl Material
s off
f 1/1/1 2/2/1 3/3/1
f 1/1/1 3/3/1 4/4/1
f 5/1/2 8/2/2 7/3/2
f 5/1/2 7/3/2 6/4/2
f 1/1/3 5/2/3 6/3/3
f 1/1/3 6/3/3 2/4/3
f 2/1/4 6/2/4 7/3/4
f 2/1/4 7/3/4 3/4/4
f 3/1/5 7/2/5 8/3/5
f 3/1/5 8/3/5 4/4/5
f 5/1/6 1/2/6 4/3/6
f 5/1/6 4/3/6 8/4/6
f 9/1/1 10/2/1 11/3/1
f 9/1/1 11/3/1 12/4/1
f 13/1/2 16/2/2 15/3/2
f 13/1/2 15/3/2 14/4/2
f 9/1/3 13/2/3 14/3/3
f 9/1/3 14/3/3 10/4/3
f 10/1/4 14/2/4 15/3/4
f 10/1/4 15/3/4 11/4/4
f 11/1/5 15/2/5 16/3/5
f 11/1/5 16/3/5 12/4/5
f 13/1/6 9/2/6 12/3/6
f 13/1/6 12/3/6 16/4/6
f 17/1/7 18/2/7 20/3/7
f 17/1/7 20/3/7 19/4/7
f 19/1/8 20/2/8 22/3/8
f 19/1/8 22/3/8 21/4/8
f 21/1/9 22/2/9 24/3/9
f 21/1/9 24/3/9 23/4/9
f 23/1/10 24/2/10 26/3/10
f 23/1/10 26/3/10 25/4/10
f 25/1/11 26/2/11 28/3/11
f 25/1/11 28/3/11 27/4/11
f 27/1/12 28/2/12 30/3/12
f 27/1/12 30/3/12 29/4/12
f 29/1/13 30/2/13 32/3/13
f 29/1/13 32/3/13 31/4/13
f 31/1/14 32/2/14 34/3/14
f 31/1/14 34/3/14 33/4/14
f 33/1/15 34/2/15 36/3/15
f 33/1/15 36/3/15 35/4/15
f 35/1/16 36/2/16 38/3/16
f 35/1/16 38/3/16 37/4/16
f 37/1/17 38/2/17 40/3/17
f 37/1/17 40/3/17 39/4/17
f 39/1/18 40/2/18 18/3/18
f 39/1/18 18/3/18 17/4/18
f 72/1/19 42/2/19 73/3/19
f 41/1/20 42/2/20 43/3/20
f 73/1/21 42/2/21 41/3/21
f 43/1/22 42/2/22 44/3/22
f 71/1/23 42/2/23 72/3/23
f 70/1/24 42/2/24 71/3/24
f 69/1/25 42/2/25 70/3/25
f 68/1/26 42/2/26 69/3/26
f 67/1/27 42/2/27 68/3/27
f 66/1/28 42/2/28 67/3/28
f 65/1/29 42/2/29 66/3/29
f 64/1/30 42/2/30 65/3/30
f 63/1/31 42/2/31 64/3/31
f 62/1/32 42/2/32 63/3/32
f 61/1/33 42/2/33 62/3/33
f 60/1/34 42/2/34 61/3/34
f 59/1/35 42/2/35 60/3/35
f 58/1/36 42/2/36 59/3/36
f 57/1/37 42/2/37 58/3/37
f 56/1/38 42/2/38 57/3/38
f 55/1/39 42/2/39 56/3/39
f 54/1/40 42/2/40 55/3/40
f 53/1/41 42/2/41 54/3/41
f 52/1/42 42/2/42 53/3/42
f 51/1/43 42/2/43 52/3/43
f 50/1/44 42/2/44 51/3/44
f 49/1/45 42/2/45 50/3/45
f 48/1/46 42/2/46 49/3/46
f 47/1/47 42/2/47 48/3/47
f 46/1/48 42/2/48 47/3/48
f 45/1/49 42/2/49 46/3/49
f 44/1/50 42/2/50 45/3/50
f 41/5/51 43/6/51 73/7/51
f 43/6/51 72/8/51 73/7/51
f 43/6/51 44/9/51 72/8/51
f 44/9/51 71/10/51 72/8/51
f 44/9/51 45/11/51 71/10/51
f 45/11/51 70/12/51 71/10/51
f 45/11/52 46/13/52 70/12/52
f 46/13/51 69/14/51 70/12/51
f 46/13/53 47/15/53 69/14/53
f 47/15/51 68/16/51 69/14/51
f 47/15/51 48/17/51 68/16/51
f 48/17/51 67/18/51 68/16/51
f 48/17/51 49/19/51 67/18/51
f 49/19/51 66/20/51 67/18/51
f 49/19/54 50/21/54 66/20/54
f 50/21/51 65/22/51 66/20/51
f 50/21/55 51/23/55 65/22/55
f 51/23/51 64/24/51 65/22/51
f 51/23/51 52/25/51 64/24/51
f 52/25/51 63/26/51 64/24/51
f 52/25/51 53/27/51 63/26/51
f 53/27/52 62/28/52 63/26/52
f 53/27/51 54/29/51 62/28/51
f 54/29/53 61/30/53 62/28/53
f 54/29/51 55/31/51 61/30/51
f 55/31/51 60/32/51 61/30/51
f 55/31/51 56/33/51 60/32/51
f 56/33/56 59/34/56 60/32/56
f 56/33/57 57/35/57 59/34/57
f 57/35/58 58/36/58 59/34/58
